{"glyphs":{"0":{"ha":917,"x_min":0,"x_max":0,"o":"m 458 -14 b 56 521 218 -14 56 218 b 458 1056 56 824 232 1056 b 861 521 685 1056 861 824 b 458 -14 861 218 699 -14 m 458 1039 b 299 521 328 1039 299 808 b 458 3 299 233 314 3 b 618 521 603 3 618 233 b 458 1039 618 808 596 1039 "},"1":{"ha":688,"x_min":0,"x_max":0,"o":"m 250 19 l 250 1022 l 93 1022 l 93 1042 l 465 1042 l 465 19 l 618 19 l 618 0 l 69 0 l 69 19 "},"2":{"ha":833,"x_min":0,"x_max":0,"o":"m 56 0 l 56 139 l 349 378 b 533 736 465 474 533 585 b 329 1007 533 908 458 1007 b 94 769 197 1007 97 903 b 204 850 111 814 151 850 b 331 731 275 850 331 800 b 194 603 331 654 264 603 b 69 763 125 603 69 656 b 417 1056 69 925 199 1056 b 756 792 633 1056 756 938 b 517 478 756 632 619 556 l 192 208 l 765 208 l 765 313 l 785 313 l 785 0 "},"3":{"ha":793,"x_min":0,"x_max":0,"o":"m 738 285 b 356 -14 738 97 565 -14 b 35 224 138 -14 35 110 b 156 353 35 301 86 353 b 267 236 218 353 267 307 b 149 125 267 171 210 125 b 79 154 113 125 90 140 b 319 17 101 88 182 17 b 514 285 471 17 514 133 b 275 554 514 408 475 554 l 275 572 b 472 821 461 572 472 725 b 333 1025 472 931 429 1025 b 142 928 244 1025 169 976 b 197 950 154 942 175 950 b 304 842 251 950 304 908 b 190 726 304 769 246 726 b 76 840 128 726 76 765 b 363 1054 76 961 221 1054 b 696 814 544 1054 696 967 b 386 564 696 692 629 588 b 738 285 649 539 738 426 "},"4":{"ha":889,"x_min":0,"x_max":0,"o":"m 826 0 l 375 0 l 375 19 l 507 19 l 507 289 l 49 289 l 563 1042 l 722 1042 l 722 308 l 875 308 l 875 289 l 722 289 l 722 19 l 826 19 m 507 308 l 507 926 l 85 308 "},"5":{"ha":743,"x_min":0,"x_max":0,"o":"m 76 108 b 268 8 93 64 174 8 b 472 308 419 8 472 150 b 301 601 472 494 418 601 b 106 496 204 601 133 549 l 79 496 l 79 1042 l 633 1042 l 633 1118 l 653 1118 l 653 833 l 99 833 l 99 514 b 350 632 135 574 217 632 b 701 308 560 632 701 517 b 300 -14 701 121 531 -14 b 14 193 151 -14 14 65 b 135 321 14 271 68 321 b 256 206 197 321 256 282 b 132 83 256 136 196 83 b 76 108 106 83 88 94 "},"6":{"ha":847,"x_min":0,"x_max":0,"o":"m 806 347 b 443 -14 806 139 667 -14 b 69 431 219 -14 69 139 b 701 1056 69 768 336 1056 l 701 1039 b 301 551 471 1039 321 797 b 481 683 324 633 374 683 b 806 347 635 683 806 583 m 576 347 b 436 650 576 568 525 650 b 299 389 346 650 299 569 b 447 6 299 168 338 6 b 576 347 557 6 576 154 "},"7":{"ha":750,"x_min":0,"x_max":0,"o":"m 206 126 b 422 518 206 236 328 368 b 592 826 471 599 528 706 l 75 826 l 75 722 l 56 722 l 56 1042 l 736 1042 b 453 525 736 1042 561 708 b 369 325 383 407 369 376 b 469 115 369 238 469 217 b 339 -14 469 43 421 -14 b 206 126 264 -14 206 26 "},"8":{"ha":833,"x_min":0,"x_max":0,"o":"m 56 264 b 325 536 56 408 143 511 b 83 778 167 560 83 649 b 417 1056 83 931 200 1056 b 750 778 633 1056 750 931 b 508 536 750 649 667 560 b 778 264 690 511 778 408 b 417 -14 778 97 661 -14 b 56 264 172 -14 56 97 m 306 778 b 417 547 306 626 335 547 b 528 778 499 547 528 626 b 417 1032 528 922 499 1032 b 306 778 335 1032 306 922 m 278 264 b 417 10 278 119 314 10 b 556 264 519 10 556 119 b 417 522 556 408 519 522 b 278 264 314 522 278 408 "},"9":{"ha":847,"x_min":0,"x_max":0,"o":"m 778 611 b 146 -14 778 274 511 -14 l 146 3 b 546 490 376 3 526 244 b 367 358 524 408 474 358 b 42 694 213 358 42 458 b 404 1056 42 903 181 1056 b 778 611 628 1056 778 903 m 271 694 b 411 392 271 474 322 392 b 549 653 501 392 549 472 b 400 1036 549 874 510 1036 b 271 694 290 1036 271 888 "}," ":{"ha":347,"x_min":0,"x_max":0,"o":""},"!":{"ha":528,"x_min":0,"x_max":0,"o":"m 386 888 b 272 358 371 685 272 532 l 253 358 b 139 888 253 532 154 685 l 139 914 b 263 1053 139 992 176 1053 b 388 914 349 1053 388 992 b 386 888 388 906 386 897 m 139 111 b 264 236 139 181 194 236 b 389 111 333 236 389 181 b 264 -14 389 42 333 -14 b 139 111 194 -14 139 42 "},"'":{"ha":361,"x_min":0,"x_max":0,"o":"m 290 918 b 190 629 275 814 190 782 l 171 629 b 71 918 171 782 86 814 b 69 943 69 928 69 935 b 181 1056 69 1011 119 1056 b 292 943 242 1056 292 1011 b 290 918 292 935 292 928 "},"\"":{"ha":667,"x_min":0,"x_max":0,"o":"m 596 918 b 496 629 581 814 496 782 l 476 629 b 376 918 476 782 392 814 b 375 943 375 928 375 935 b 486 1056 375 1011 425 1056 b 597 943 547 1056 597 1011 b 596 918 597 935 597 928 m 290 918 b 190 629 275 814 190 782 l 171 629 b 71 918 171 782 86 814 b 69 943 69 928 69 935 b 181 1056 69 1011 119 1056 b 292 943 242 1056 292 1011 b 290 918 292 935 292 928 "},"#":{"ha":875,"x_min":0,"x_max":0,"o":"m 264 361 l 308 701 l 83 701 l 83 721 l 311 721 l 354 1049 l 374 1049 l 331 721 l 583 721 l 626 1047 l 646 1049 l 603 721 l 833 721 l 833 701 l 600 701 l 556 361 l 792 361 l 792 342 l 553 342 l 507 -7 l 488 -8 l 533 342 l 281 342 l 235 -7 l 215 -7 l 261 342 l 42 342 l 42 361 m 536 361 l 581 701 l 328 701 l 283 361 "},"$":{"ha":826,"x_min":0,"x_max":0,"o":"m 685 894 b 460 1032 661 960 572 1021 l 460 663 b 771 306 608 599 771 521 b 460 -19 771 125 650 -1 l 460 -111 l 436 -111 l 436 -21 b 414 -21 429 -21 421 -21 b 350 -18 392 -21 371 -19 l 350 -111 l 326 -111 l 326 -15 b 39 215 132 11 39 124 b 160 350 39 293 85 350 b 269 231 215 350 269 306 b 150 126 269 161 204 126 b 78 158 117 126 89 142 b 326 6 108 101 179 25 l 326 446 b 76 771 197 503 76 582 b 326 1046 76 914 192 1014 l 326 1153 l 350 1153 l 350 1050 b 415 1056 372 1054 393 1056 b 436 1056 422 1056 429 1056 l 436 1153 l 460 1153 l 460 1053 b 729 840 603 1039 729 956 b 611 713 729 763 686 713 b 501 822 556 713 501 750 b 610 929 501 889 556 929 b 685 894 638 929 668 915 m 425 1033 b 350 1024 399 1033 372 1031 l 350 713 b 436 672 376 699 406 686 l 436 1033 b 425 1033 432 1033 429 1033 m 222 871 b 326 725 222 803 265 761 l 326 1017 b 222 871 263 990 222 939 m 403 0 b 436 1 414 0 425 0 l 436 399 b 350 435 408 411 379 422 l 350 3 b 403 0 367 1 385 0 m 625 199 b 460 388 625 297 553 346 l 460 4 b 625 199 569 22 625 96 "},"%":{"ha":1417,"x_min":0,"x_max":0,"o":"m 49 750 b 354 1056 49 949 197 1056 b 660 750 511 1056 660 949 b 354 444 660 551 483 444 b 49 750 197 444 49 551 m 1076 1042 l 364 0 l 340 0 l 1053 1042 m 264 750 b 354 464 264 569 286 464 b 444 750 422 464 444 569 b 354 1036 444 931 422 1036 b 264 750 286 1036 264 931 m 757 292 b 1063 597 757 490 906 597 b 1368 292 1219 597 1368 490 b 1063 -14 1368 93 1192 -14 b 757 292 906 -14 757 93 m 972 292 b 1063 6 972 111 994 6 b 1153 292 1131 6 1153 111 b 1063 578 1153 472 1131 578 b 972 292 994 578 972 472 "},"&":{"ha":1196,"x_min":0,"x_max":0,"o":"m 1144 639 l 1144 619 l 1013 619 b 851 219 994 479 940 335 l 983 19 l 1158 19 l 1158 0 l 750 0 l 699 75 b 394 -14 614 19 513 -14 b 56 250 175 -14 56 93 b 375 556 56 422 229 490 l 290 681 b 226 851 254 733 226 803 b 554 1056 226 976 358 1056 b 854 879 738 1056 854 988 b 574 642 854 749 724 710 l 840 236 b 993 619 921 343 978 481 l 811 619 l 811 639 m 563 658 b 647 882 615 697 647 751 b 550 1042 647 961 628 1042 b 446 910 475 1042 446 976 b 547 681 446 854 488 769 m 289 324 b 517 43 289 172 386 43 b 686 94 575 43 633 61 l 386 539 b 289 324 326 497 289 444 "},"(":{"ha":517,"x_min":0,"x_max":0,"o":"m 490 -236 b 90 451 264 -139 90 128 b 490 1111 90 775 264 1014 l 499 1094 b 306 451 361 1004 306 718 b 499 -219 306 185 361 -129 "},")":{"ha":517,"x_min":0,"x_max":0,"o":"m 26 1111 b 426 424 253 1014 426 747 b 26 -236 426 100 253 -139 l 18 -219 b 211 424 156 -129 211 157 b 18 1094 211 690 156 1004 "},"*":{"ha":882,"x_min":0,"x_max":0,"o":"m 331 385 b 431 657 346 485 424 518 b 244 435 314 582 324 497 b 224 421 236 428 231 425 b 71 461 165 386 101 407 b 113 613 40 514 54 579 b 135 624 119 617 125 621 b 421 674 229 661 297 610 b 136 724 299 738 231 686 b 114 735 126 726 121 731 b 72 888 56 768 42 833 b 225 926 103 940 167 961 b 246 913 232 922 238 919 b 432 692 325 850 315 765 b 332 963 425 829 347 863 b 331 988 331 972 331 979 b 442 1100 331 1056 381 1100 b 553 988 503 1100 553 1056 b 551 963 553 979 553 972 b 451 692 536 863 458 829 b 636 913 567 765 557 850 b 657 926 644 919 650 922 b 810 886 715 961 779 940 b 768 735 840 833 826 768 b 746 724 761 731 756 726 b 461 674 651 686 583 738 b 746 624 583 610 651 661 b 768 613 756 621 761 617 b 810 460 826 579 840 514 b 657 421 779 407 715 386 b 636 435 650 425 644 428 b 450 656 557 497 567 582 b 550 385 457 518 535 485 b 551 360 551 375 551 368 b 440 247 551 292 501 247 b 329 360 379 247 329 292 b 331 385 329 368 329 375 "},"+":{"ha":736,"x_min":0,"x_max":0,"o":"m 358 429 l 83 429 l 83 449 l 358 449 l 358 722 l 378 722 l 378 449 l 653 449 l 653 429 l 378 429 l 378 153 l 358 153 "},",":{"ha":382,"x_min":0,"x_max":0,"o":"m 56 110 b 190 233 56 176 117 233 b 329 47 265 233 329 169 b 53 -214 329 -92 219 -214 l 53 -194 b 306 81 194 -194 315 -100 b 175 -14 283 24 232 -14 b 56 110 103 -14 56 43 "},"-":{"ha":500,"x_min":0,"x_max":0,"o":"m 417 392 l 417 372 l 83 372 l 83 392 "},".":{"ha":361,"x_min":0,"x_max":0,"o":"m 56 111 b 181 236 56 181 111 236 b 306 111 250 236 306 181 b 181 -14 306 42 250 -14 b 56 111 111 -14 56 42 "},"/":{"ha":722,"x_min":0,"x_max":0,"o":"m 667 1083 l 75 -208 l 56 -208 l 647 1083 "},":":{"ha":360,"x_min":0,"x_max":0,"o":"m 56 625 b 181 750 56 694 111 750 b 306 625 250 750 306 694 b 181 500 306 556 250 500 b 56 625 111 500 56 556 m 56 111 b 181 236 56 181 111 236 b 306 111 250 236 306 181 b 181 -14 306 42 250 -14 b 56 111 111 -14 56 42 "},";":{"ha":385,"x_min":0,"x_max":0,"o":"m 57 625 b 182 750 57 694 113 750 b 307 625 251 750 307 694 b 182 500 307 556 251 500 b 57 625 113 500 57 556 m 57 110 b 192 233 57 176 118 233 b 331 47 267 233 331 169 b 54 -214 331 -92 221 -214 l 54 -194 b 307 81 196 -194 317 -100 b 176 -14 285 24 233 -14 b 57 110 104 -14 57 43 "},"<":{"ha":778,"x_min":0,"x_max":0,"o":"m 83 550 l 694 833 l 694 814 l 100 539 l 694 263 l 694 243 l 83 526 "},"=":{"ha":778,"x_min":0,"x_max":0,"o":"m 694 718 l 694 699 l 83 699 l 83 718 m 694 510 l 694 490 l 83 490 l 83 510 "},">":{"ha":778,"x_min":0,"x_max":0,"o":"m 694 526 l 83 243 l 83 263 l 678 539 l 83 814 l 83 833 l 694 550 "},"?":{"ha":813,"x_min":0,"x_max":0,"o":"m 340 497 b 519 778 468 538 519 649 b 360 1029 519 908 497 1029 b 125 872 240 1029 142 936 b 194 903 131 882 156 903 b 311 799 256 903 311 865 b 197 686 311 726 260 686 b 83 807 128 686 83 732 b 397 1056 83 928 214 1056 b 743 778 607 1056 743 944 b 360 486 743 618 590 499 l 360 339 l 340 339 l 340 497 m 249 111 b 374 236 249 181 304 236 b 499 111 443 236 499 181 b 374 -14 499 42 443 -14 b 249 111 304 -14 249 42 "},"@":{"ha":1403,"x_min":0,"x_max":0,"o":"m 817 489 l 871 722 l 1079 722 l 978 289 b 1008 131 968 246 926 131 b 1307 557 1164 131 1307 333 b 811 1078 1307 804 1154 1078 b 96 293 418 1078 96 718 b 582 -278 96 -128 338 -278 b 1076 -75 808 -278 954 -211 l 1090 -89 b 582 -297 974 -225 808 -297 b 76 293 328 -297 76 -143 b 813 1097 76 728 406 1097 b 1326 557 1164 1097 1326 811 b 939 94 1326 328 1197 94 b 765 251 799 94 761 175 b 551 97 719 157 644 97 b 339 319 431 97 339 175 b 669 735 339 528 492 735 b 817 494 792 735 817 608 m 800 481 b 728 675 800 539 794 675 b 563 328 653 675 563 500 b 639 157 563 235 583 157 b 800 481 710 157 800 306 "},"A":{"ha":1086,"x_min":0,"x_max":0,"o":"m 146 19 l 514 1063 l 600 1063 l 963 19 l 1067 19 l 1067 0 l 594 0 l 594 19 l 713 19 l 613 331 l 276 331 l 168 19 l 331 19 l 331 0 l 25 0 l 25 19 m 283 350 l 606 350 l 450 828 "},"B":{"ha":968,"x_min":0,"x_max":0,"o":"m 25 0 l 25 19 l 150 19 l 150 1022 l 25 1022 l 25 1042 l 497 1042 b 872 785 728 1042 872 965 b 611 536 872 640 782 560 b 914 278 786 519 914 446 b 525 0 914 76 769 0 m 364 1022 l 364 544 l 469 544 b 650 771 568 544 650 606 b 469 1022 650 936 568 1022 m 364 525 l 364 19 l 483 19 b 678 292 596 19 678 126 b 483 525 678 457 596 525 "},"C":{"ha":975,"x_min":0,"x_max":0,"o":"m 919 0 l 906 0 l 797 76 b 558 -14 738 19 657 -14 b 58 521 249 -14 58 211 b 558 1056 58 831 249 1056 b 775 969 644 1056 718 1024 l 892 1042 l 906 1042 l 906 736 l 886 736 b 572 1028 831 910 722 1028 b 303 521 365 1028 303 774 b 572 14 303 268 365 14 b 900 306 756 14 846 144 l 919 306 "},"D":{"ha":1051,"x_min":0,"x_max":0,"o":"m 25 0 l 25 19 l 150 19 l 150 1022 l 25 1022 l 25 1042 l 469 1042 b 997 521 800 1042 997 831 b 469 0 997 211 786 0 m 364 1022 l 364 19 l 469 19 b 753 521 683 19 753 247 b 469 1022 753 794 669 1022 "},"E":{"ha":871,"x_min":0,"x_max":0,"o":"m 581 365 b 414 529 560 458 493 529 l 364 529 l 364 19 l 511 19 b 811 313 701 19 790 136 l 831 313 l 831 0 l 25 0 l 25 19 l 150 19 l 150 1022 l 25 1022 l 25 1042 l 817 1042 l 817 757 l 797 757 b 525 1022 776 906 688 1022 l 364 1022 l 364 549 l 414 549 b 581 706 493 549 560 613 l 600 706 l 600 365 l 581 365 "},"F":{"ha":836,"x_min":0,"x_max":0,"o":"m 150 19 l 150 1022 l 25 1022 l 25 1042 l 794 1042 l 794 757 l 775 757 b 525 1022 754 906 681 1022 l 364 1022 l 364 528 l 400 528 b 581 685 507 528 560 592 l 600 685 l 600 344 l 581 344 b 400 508 560 438 507 508 l 364 508 l 364 19 l 503 19 l 503 0 l 25 0 l 25 19 "},"G":{"ha":1051,"x_min":0,"x_max":0,"o":"m 1039 406 l 1039 386 l 969 386 l 969 215 b 553 -14 879 121 779 -14 b 58 521 243 -14 58 197 b 572 1056 58 844 290 1056 b 793 978 651 1056 731 1026 l 919 1042 l 933 1042 l 933 736 l 914 736 b 592 1028 882 881 753 1028 b 303 521 385 1028 303 774 b 553 10 303 268 353 10 b 739 174 669 10 718 115 l 739 386 l 594 386 l 594 406 "},"H":{"ha":1100,"x_min":0,"x_max":0,"o":"m 150 19 l 150 1022 l 25 1022 l 25 1042 l 489 1042 l 489 1022 l 364 1022 l 364 524 l 739 524 l 739 1022 l 614 1022 l 614 1042 l 1081 1042 l 1081 1022 l 956 1022 l 956 19 l 1081 19 l 1081 0 l 614 0 l 614 19 l 739 19 l 739 504 l 364 504 l 364 19 l 489 19 l 489 0 l 25 0 l 25 19 "},"I":{"ha":579,"x_min":0,"x_max":0,"o":"m 178 19 l 178 1022 l 25 1022 l 25 1042 l 558 1042 l 558 1022 l 392 1022 l 392 19 l 558 19 l 558 0 l 25 0 l 25 19 "},"J":{"ha":740,"x_min":0,"x_max":0,"o":"m 719 1042 l 719 1022 l 581 1022 l 581 236 b 247 -42 525 104 450 -42 b 17 146 106 -42 17 42 b 144 278 17 225 75 278 b 264 154 207 278 264 232 b 144 31 264 85 211 31 b 86 46 121 31 97 38 b 242 -22 114 13 169 -22 b 367 264 343 -22 367 69 l 367 1022 l 186 1022 l 186 1042 "},"K":{"ha":1065,"x_min":0,"x_max":0,"o":"m 150 19 l 150 1022 l 25 1022 l 25 1042 l 503 1042 l 503 1022 l 364 1022 l 364 493 l 817 1022 l 664 1022 l 664 1042 l 997 1042 l 997 1022 l 846 1022 l 550 678 l 939 19 l 1058 19 l 1058 0 l 558 0 l 558 19 l 689 19 l 410 513 l 364 458 l 364 19 l 489 19 l 489 0 l 25 0 l 25 19 "},"L":{"ha":854,"x_min":0,"x_max":0,"o":"m 25 0 l 25 19 l 150 19 l 150 1022 l 25 1022 l 25 1042 l 489 1042 l 489 1022 l 364 1022 l 364 19 l 507 19 b 807 313 711 19 786 136 l 826 313 l 826 0 "},"M":{"ha":1225,"x_min":0,"x_max":0,"o":"m 131 19 l 131 1022 l 25 1022 l 25 1042 l 350 1042 l 625 297 l 881 1042 l 1206 1042 l 1206 1022 l 1108 1022 l 1108 19 l 1206 19 l 1206 0 l 781 0 l 781 19 l 892 19 l 892 1010 l 540 -14 l 519 -14 l 150 996 l 150 19 l 250 19 l 250 0 l 31 0 l 31 19 "},"N":{"ha":1046,"x_min":0,"x_max":0,"o":"m 167 19 l 167 1022 l 25 1022 l 25 1042 l 419 1042 l 860 356 l 860 1022 l 706 1022 l 706 1042 l 1026 1042 l 1026 1022 l 881 1022 l 881 -14 l 849 -14 l 189 1003 l 189 19 l 347 19 l 347 0 l 25 0 l 25 19 "},"O":{"ha":1058,"x_min":0,"x_max":0,"o":"m 531 -14 b 58 521 235 -14 58 218 b 531 1056 58 824 249 1056 b 1003 521 813 1056 1003 824 b 531 -14 1003 218 826 -14 m 531 1039 b 303 521 351 1039 303 808 b 531 3 303 233 338 3 b 761 521 724 3 761 233 b 531 1039 761 808 710 1039 "},"P":{"ha":933,"x_min":0,"x_max":0,"o":"m 150 19 l 150 1022 l 25 1022 l 25 1042 l 503 1042 b 886 750 768 1042 886 931 b 503 463 886 569 768 463 l 364 463 l 364 19 l 489 19 l 489 0 l 25 0 l 25 19 m 364 1022 l 364 482 l 475 482 b 650 750 594 482 650 626 b 475 1022 650 874 594 1022 "},"Q":{"ha":1058,"x_min":0,"x_max":0,"o":"m 808 -347 b 406 1 467 -347 407 -271 b 58 521 186 57 58 264 b 531 1056 58 824 249 1056 b 1003 521 813 1056 1003 824 b 650 0 1003 261 874 54 b 808 -328 650 -249 663 -328 m 531 1039 b 303 521 351 1039 303 808 b 531 3 303 233 338 3 b 761 521 724 3 761 233 b 531 1039 761 808 710 1039 "},"R":{"ha":1031,"x_min":0,"x_max":0,"o":"m 164 19 l 164 1022 l 25 1022 l 25 1042 l 511 1042 b 900 785 742 1042 900 965 b 589 535 900 624 786 550 b 939 19 1040 532 768 19 b 1011 36 968 19 992 28 l 1017 17 b 850 -11 994 4 931 -11 b 475 525 471 -11 817 525 l 378 525 l 378 19 l 517 19 l 517 0 l 25 0 l 25 19 m 378 1022 l 378 544 l 475 544 b 678 785 608 544 678 619 b 475 1022 678 950 608 1022 "},"S":{"ha":829,"x_min":0,"x_max":0,"o":"m 58 -14 l 58 313 l 78 313 b 417 1 128 165 228 1 b 631 199 550 1 631 79 b 72 778 631 463 72 375 b 381 1056 72 951 219 1056 b 592 975 465 1056 535 1028 l 706 1056 l 719 1056 l 719 743 l 700 743 b 392 1032 644 918 539 1032 b 219 872 279 1032 219 968 b 775 299 219 636 775 697 b 428 -21 775 104 624 -21 b 192 74 325 -21 250 17 l 72 -14 "},"T":{"ha":940,"x_min":0,"x_max":0,"o":"m 364 19 l 364 1022 l 275 1022 b 44 708 126 1022 65 885 l 25 708 l 25 1042 l 919 1042 l 919 708 l 900 708 b 669 1022 879 885 818 1022 l 581 1022 l 581 19 l 733 19 l 733 0 l 211 0 l 211 19 "},"U":{"ha":1003,"x_min":0,"x_max":0,"o":"m 503 1042 l 503 1022 l 364 1022 l 364 333 b 578 11 364 150 399 11 b 833 319 725 11 833 103 l 833 1022 l 711 1022 l 711 1042 l 983 1042 l 983 1022 l 853 1022 l 853 319 b 525 -21 853 90 751 -21 b 150 319 264 -21 150 79 l 150 1022 l 25 1022 l 25 1042 "},"V":{"ha":1072,"x_min":0,"x_max":0,"o":"m 918 1022 l 753 1022 l 753 1042 l 1058 1042 l 1058 1022 l 940 1022 l 569 -21 l 483 -21 l 121 1022 l 17 1022 l 17 1042 l 517 1042 l 517 1022 l 371 1022 l 633 214 "},"W":{"ha":1531,"x_min":0,"x_max":0,"o":"m 1057 1022 l 928 674 l 1083 239 l 1369 1022 l 1239 1022 l 1239 1042 l 1517 1042 l 1517 1022 l 1393 1022 l 1014 -14 l 956 -14 l 774 489 l 589 -14 l 511 -14 l 135 1022 l 17 1022 l 17 1042 l 1178 1042 l 1178 1022 m 761 519 l 579 1022 l 379 1022 l 658 239 m 917 706 l 1035 1022 l 803 1022 "},"X":{"ha":1100,"x_min":0,"x_max":0,"o":"m 163 19 l 469 483 l 161 1022 l 67 1022 l 67 1042 l 539 1042 l 539 1022 l 406 1022 l 619 654 l 853 1022 l 706 1022 l 706 1042 l 1011 1042 l 1011 1022 l 878 1022 l 632 632 l 986 19 l 1086 19 l 1086 0 l 614 0 l 614 19 l 736 19 l 482 464 l 188 19 l 350 19 l 350 0 l 17 0 l 17 19 "},"Y":{"ha":1024,"x_min":0,"x_max":0,"o":"m 419 19 l 419 500 l 114 1022 l 17 1022 l 17 1042 l 503 1042 l 503 1022 l 364 1022 l 625 558 l 876 1022 l 719 1022 l 719 1042 l 1011 1042 l 1011 1022 l 900 1022 l 636 532 l 636 19 l 775 19 l 775 0 l 294 0 l 294 19 "},"Z":{"ha":857,"x_min":0,"x_max":0,"o":"m 794 1042 l 794 1022 l 261 19 l 517 19 b 789 285 707 19 761 108 l 808 285 l 808 0 l 17 0 l 17 19 l 553 1022 l 336 1022 b 64 785 146 1022 92 933 l 44 785 l 44 1042 "},"[":{"ha":493,"x_min":0,"x_max":0,"o":"m 76 -208 l 76 1083 l 451 1083 l 451 1064 l 285 1064 l 285 -189 l 451 -189 l 451 -208 "},"\\":{"ha":722,"x_min":0,"x_max":0,"o":"m 667 -208 l 643 -208 l 56 1083 l 79 1083 "},"]":{"ha":493,"x_min":0,"x_max":0,"o":"m 208 -189 l 208 1064 l 42 1064 l 42 1083 l 417 1083 l 417 -208 l 42 -208 l 42 -189 "},"^":{"ha":757,"x_min":0,"x_max":0,"o":"m 149 865 l 139 875 l 333 1069 l 424 1069 l 618 875 l 608 865 l 378 1004 "},"_":{"ha":778,"x_min":0,"x_max":0,"o":"m 785 -199 l 785 -218 l -7 -218 l -7 -199 "},"`":{"ha":569,"x_min":0,"x_max":0,"o":"m 167 972 b 76 1049 119 967 76 1001 b 181 1122 76 1096 126 1142 l 492 1017 l 486 997 l 167 972 "},"a":{"ha":808,"x_min":0,"x_max":0,"o":"m 457 358 l 457 424 b 325 628 457 531 429 628 b 200 589 267 628 222 607 b 325 504 261 603 325 569 b 208 404 325 442 264 404 b 101 501 146 404 101 444 b 363 650 101 590 222 650 b 651 424 592 650 651 550 l 651 79 b 703 29 651 50 669 29 b 790 94 728 29 763 43 l 804 88 b 619 -14 772 18 700 -14 b 457 108 533 -14 457 17 l 457 135 b 240 -14 428 38 356 -14 b 53 157 131 -14 53 54 b 357 358 53 274 157 358 m 342 56 b 457 251 394 56 457 104 l 457 339 l 406 339 b 264 178 321 339 264 267 b 342 56 264 106 289 56 "},"b":{"ha":871,"x_min":0,"x_max":0,"o":"m 25 1022 l 25 1042 l 314 1042 l 314 456 b 531 651 343 582 417 651 b 825 319 682 651 825 528 b 531 -14 825 111 682 -14 b 314 183 417 -14 343 57 l 314 0 l 25 0 l 25 19 l 119 19 l 119 1022 m 314 319 b 483 21 314 122 403 21 b 603 319 565 21 603 119 b 483 617 603 519 565 617 b 314 319 403 617 314 517 "},"c":{"ha":718,"x_min":0,"x_max":0,"o":"m 592 547 b 422 631 572 589 501 631 b 275 319 292 631 275 450 b 428 15 275 161 307 15 b 640 199 533 15 604 90 l 661 199 b 390 -14 625 78 544 -14 b 46 319 188 -14 46 97 b 399 653 46 514 168 653 b 661 464 547 653 661 571 b 550 353 661 393 613 353 b 436 461 494 353 436 381 b 539 567 436 531 492 567 b 592 547 567 567 583 556 "},"d":{"ha":871,"x_min":0,"x_max":0,"o":"m 847 0 l 557 0 l 557 178 b 340 -14 526 54 453 -14 b 46 319 189 -14 46 111 b 340 651 46 528 189 651 b 557 461 453 651 526 583 l 557 1022 l 463 1022 l 463 1042 l 751 1042 l 751 19 l 847 19 m 557 319 b 389 617 557 525 467 617 b 268 319 307 617 268 524 b 393 25 268 115 311 25 b 557 319 471 25 557 114 "},"e":{"ha":731,"x_min":0,"x_max":0,"o":"m 689 199 b 386 -14 653 78 554 -14 b 46 319 190 -14 46 104 b 383 653 46 535 188 653 b 688 353 590 653 688 504 l 261 353 b 261 333 261 346 261 340 b 422 11 261 154 292 11 b 671 199 544 11 636 92 l 689 199 m 383 633 b 261 372 296 633 267 514 l 481 372 b 383 633 481 486 472 633 "},"f":{"ha":543,"x_min":0,"x_max":0,"o":"m 142 19 l 142 619 l 18 619 l 18 639 l 142 639 l 142 711 b 478 1056 142 907 276 1056 b 669 897 597 1056 669 976 b 561 783 669 826 624 783 b 450 886 506 783 450 817 b 558 994 450 953 500 994 b 618 969 586 994 610 982 b 482 1036 601 996 563 1036 b 328 750 371 1036 328 926 l 328 639 l 519 639 l 519 619 l 328 619 l 328 19 l 492 19 l 492 0 l 18 0 l 18 19 "},"g":{"ha":863,"x_min":0,"x_max":0,"o":"m 69 97 b 257 232 69 178 158 218 b 60 438 153 254 60 318 b 343 653 60 590 210 653 b 568 576 425 653 513 629 b 711 646 608 628 664 646 b 844 531 803 646 844 583 b 757 429 844 454 799 429 b 669 517 715 429 669 457 b 753 599 669 563 703 599 b 806 575 779 599 800 586 b 711 626 794 606 761 626 b 582 561 668 626 618 610 b 626 438 610 529 626 489 b 343 224 626 285 476 224 b 303 225 329 224 317 224 b 192 161 249 217 192 197 b 333 117 192 119 257 117 b 453 118 382 117 414 118 b 685 -114 557 118 685 75 b 358 -361 685 -282 546 -361 b 25 -183 194 -361 25 -312 b 194 -33 25 -82 124 -44 b 69 97 122 -15 69 25 m 261 438 b 343 243 261 321 268 243 b 425 438 397 243 425 321 b 343 633 425 554 397 633 b 261 438 289 633 261 554 m 192 -147 b 372 -339 192 -256 253 -339 b 617 -171 494 -339 617 -294 b 456 -47 617 -90 546 -47 l 311 -47 b 232 -42 283 -47 257 -46 b 192 -147 197 -71 192 -121 "},"h":{"ha":857,"x_min":0,"x_max":0,"o":"m 119 19 l 119 1022 l 25 1022 l 25 1042 l 314 1042 l 314 449 b 542 653 338 556 399 653 b 739 443 697 653 739 564 l 739 19 l 833 19 l 833 0 l 469 0 l 469 19 l 544 19 l 544 433 b 467 597 544 550 525 597 b 314 310 360 597 314 446 l 314 19 l 389 19 l 389 0 l 25 0 l 25 19 "},"i":{"ha":438,"x_min":0,"x_max":0,"o":"m 92 938 b 211 1056 92 1004 144 1056 b 328 938 278 1056 328 1004 b 211 819 328 871 278 819 b 92 938 144 819 92 871 m 128 19 l 128 619 l 32 619 l 32 639 l 322 639 l 322 19 l 417 19 l 417 0 l 32 0 l 32 19 "},"j":{"ha":446,"x_min":0,"x_max":0,"o":"m 117 938 b 233 1056 117 1004 167 1056 b 353 938 300 1056 353 1004 b 233 819 353 871 300 819 b 117 938 167 819 117 871 m 342 -17 b 42 -361 342 -199 236 -361 b -172 -197 -85 -361 -172 -289 b -58 -82 -172 -128 -119 -82 b 56 -185 -3 -82 56 -115 b -67 -290 56 -251 6 -290 b -111 -261 -92 -290 -108 -275 b 25 -339 -106 -294 -53 -339 b 147 28 171 -339 147 -149 l 147 619 l 25 619 l 25 639 l 342 639 "},"k":{"ha":882,"x_min":0,"x_max":0,"o":"m 147 19 l 147 1022 l 25 1022 l 25 1042 l 342 1042 l 342 397 l 653 619 l 499 619 l 499 639 l 803 639 l 803 619 l 686 619 l 467 458 l 804 19 l 872 19 l 872 0 l 482 0 l 482 19 l 564 19 l 342 317 l 342 19 l 419 19 l 419 0 l 25 0 l 25 19 "},"l":{"ha":489,"x_min":0,"x_max":0,"o":"m 147 19 l 147 1022 l 25 1022 l 25 1042 l 342 1042 l 342 19 l 464 19 l 464 0 l 25 0 l 25 19 "},"m":{"ha":1225,"x_min":0,"x_max":0,"o":"m 119 19 l 119 619 l 25 619 l 25 639 l 314 639 l 314 457 b 525 653 336 560 392 653 b 710 475 649 653 701 579 b 917 653 732 571 786 653 b 1106 443 1053 653 1106 564 l 1106 19 l 1200 19 l 1200 0 l 842 0 l 842 19 l 911 19 l 911 433 b 844 601 911 550 897 601 b 711 310 749 601 711 450 l 711 19 l 781 19 l 781 0 l 444 0 l 444 19 l 517 19 l 517 433 b 453 601 517 550 506 601 b 314 310 360 601 314 450 l 314 19 l 385 19 l 385 0 l 25 0 l 25 19 "},"n":{"ha":857,"x_min":0,"x_max":0,"o":"m 119 19 l 119 619 l 25 619 l 25 639 l 314 639 l 314 444 b 542 653 338 553 400 653 b 739 443 693 653 739 564 l 739 19 l 833 19 l 833 0 l 469 0 l 469 19 l 544 19 l 544 433 b 467 597 544 550 525 597 b 314 310 365 597 314 446 l 314 19 l 389 19 l 389 0 l 25 0 l 25 19 "},"o":{"ha":769,"x_min":0,"x_max":0,"o":"m 46 319 b 385 653 46 500 175 653 b 724 319 594 653 724 500 b 385 -14 724 139 594 -14 b 46 319 175 -14 46 139 m 254 319 b 385 6 254 154 282 6 b 515 319 488 6 515 154 b 385 633 515 485 488 633 b 254 319 282 633 254 485 "},"p":{"ha":871,"x_min":0,"x_max":0,"o":"m 119 -328 l 119 619 l 25 619 l 25 639 l 314 639 l 314 456 b 531 651 343 582 417 651 b 825 319 682 651 825 528 b 531 -14 825 111 682 -14 b 314 183 417 -14 343 57 l 314 -328 l 408 -328 l 408 -347 l 25 -347 l 25 -328 m 314 319 b 481 21 314 114 407 21 b 603 319 567 21 603 128 b 483 617 603 511 569 617 b 314 319 406 617 314 525 "},"q":{"ha":871,"x_min":0,"x_max":0,"o":"m 847 -347 l 463 -347 l 463 -328 l 557 -328 l 557 178 b 340 -14 526 54 453 -14 b 46 319 189 -14 46 111 b 340 651 46 528 189 651 b 557 461 453 651 526 583 l 557 639 l 847 639 l 847 619 l 751 619 l 751 -328 l 847 -328 m 557 319 b 389 617 557 525 467 617 b 268 319 307 617 268 511 b 389 25 268 128 307 25 b 557 319 475 25 557 114 "},"r":{"ha":661,"x_min":0,"x_max":0,"o":"m 119 19 l 119 619 l 25 619 l 25 639 l 314 639 l 314 478 b 494 653 335 578 383 653 b 650 506 572 653 650 594 b 536 386 650 442 610 386 b 419 497 469 386 419 428 b 581 586 419 583 514 626 b 492 632 564 617 528 632 b 314 310 347 632 314 454 l 314 19 l 408 19 l 408 0 l 25 0 l 25 19 "},"s":{"ha":619,"x_min":0,"x_max":0,"o":"m 54 -14 l 54 201 l 74 201 b 319 7 118 86 208 7 b 475 108 400 7 475 38 b 69 451 475 250 69 179 b 285 651 69 561 153 651 b 444 593 351 651 404 628 l 519 653 l 533 653 l 533 458 l 515 458 b 286 631 483 538 406 631 b 161 539 228 631 161 603 b 581 204 161 408 581 465 b 329 -14 581 60 457 -14 b 146 53 256 -14 193 11 l 69 -14 "},"t":{"ha":503,"x_min":0,"x_max":0,"o":"m 497 142 b 274 -10 464 53 386 -10 b 113 161 139 -10 113 64 l 113 619 l 11 619 l 11 639 l 113 639 l 113 778 b 307 819 175 778 258 792 l 307 639 l 456 639 l 456 619 l 307 619 l 307 133 b 360 38 307 64 322 38 b 481 149 401 38 453 82 l 497 142 "},"u":{"ha":857,"x_min":0,"x_max":0,"o":"m 314 206 b 392 42 314 89 333 42 b 544 329 493 42 544 193 l 544 619 l 453 619 l 453 639 l 739 639 l 739 19 l 833 19 l 833 0 l 544 0 l 544 194 b 317 -14 521 86 458 -14 b 119 196 165 -14 119 75 l 119 619 l 25 619 l 25 639 l 314 639 "},"v":{"ha":792,"x_min":0,"x_max":0,"o":"m 654 619 l 526 619 l 526 639 l 792 639 l 792 619 l 681 619 l 425 -14 l 356 -14 l 94 619 l -1 619 l -1 639 l 411 639 l 411 619 l 310 619 l 474 167 "},"w":{"ha":1140,"x_min":0,"x_max":0,"o":"m 614 653 l 719 653 l 854 208 l 990 619 l 847 619 l 847 639 l 1139 639 l 1139 619 l 1015 619 l 803 -14 l 731 -14 l 561 461 l 372 -14 l 300 -14 l 93 619 l -1 619 l -1 639 l 419 639 l 419 619 l 300 619 l 425 179 "},"x":{"ha":796,"x_min":0,"x_max":0,"o":"m 108 19 l 326 269 l 107 619 l 19 619 l 19 639 l 419 639 l 419 619 l 329 619 l 457 419 l 631 619 l 519 619 l 519 639 l 767 639 l 767 619 l 657 619 l 468 401 l 713 19 l 783 19 l 783 0 l 394 0 l 394 19 l 482 19 l 338 251 l 136 19 l 275 19 l 275 0 l 13 0 l 13 19 "},"y":{"ha":822,"x_min":0,"x_max":0,"o":"m 418 -22 l 88 619 l -8 619 l -8 639 l 451 639 l 451 619 l 318 619 l 525 208 l 718 619 l 582 619 l 582 639 l 839 639 l 839 619 l 746 619 l 329 -264 b 206 -358 301 -322 265 -358 b 97 -254 150 -358 97 -321 b 208 -144 97 -194 143 -144 b 314 -243 267 -144 311 -190 "},"z":{"ha":661,"x_min":0,"x_max":0,"o":"m 283 619 b 76 400 153 619 97 540 l 57 400 l 57 639 l 614 639 l 614 619 l 238 19 l 378 19 b 618 256 540 19 597 83 l 636 256 l 636 0 l 18 0 l 18 19 l 393 619 l 283 619 "},"{":{"ha":461,"x_min":0,"x_max":0,"o":"m 419 -208 b 76 0 156 -208 76 -137 b 160 326 76 176 160 239 b 76 428 160 383 118 414 l 76 447 b 160 550 118 461 160 493 b 76 876 160 638 76 700 b 419 1083 76 1014 156 1083 l 419 1064 b 289 899 333 1064 289 986 b 336 619 289 807 336 744 b 107 439 336 511 271 467 b 336 257 271 410 336 365 b 289 -22 336 132 289 69 b 419 -189 289 -110 333 -189 l 419 -208 "},"|":{"ha":319,"x_min":0,"x_max":0,"o":"m 169 1083 l 169 -347 l 150 -347 l 150 1083 "},"}":{"ha":461,"x_min":0,"x_max":0,"o":"m 42 -189 b 172 -24 128 -189 172 -111 b 125 256 172 68 125 131 b 354 436 125 364 190 408 b 125 618 190 465 125 510 b 172 897 125 743 172 806 b 42 1064 172 985 128 1064 l 42 1083 b 385 875 306 1083 385 1013 b 301 549 385 699 301 636 b 385 447 301 492 343 461 l 385 428 b 301 325 343 414 301 382 b 385 -1 301 238 385 175 b 42 -208 385 -139 306 -208 "},"~":{"ha":956,"x_min":0,"x_max":0,"o":"m 286 586 b 158 476 213 586 158 556 l 139 476 b 346 729 139 636 222 729 b 656 599 499 729 519 599 b 797 708 743 599 797 629 l 817 708 b 610 456 817 549 733 456 b 286 586 433 456 432 586 "},"¡":{"ha":443,"x_min":0,"x_max":0,"o":"m 304 611 b 179 486 304 542 249 486 b 54 611 110 486 54 542 b 179 736 54 681 110 736 b 304 611 249 736 304 681 m 57 -165 b 171 364 72 38 171 190 l 190 364 b 304 -165 190 190 289 38 l 304 -192 b 181 -331 304 -269 267 -331 b 56 -192 94 -331 56 -269 b 57 -165 56 -183 57 -175 "},"¢":{"ha":718,"x_min":0,"x_max":0,"o":"m 592 547 b 422 631 572 589 501 631 b 408 629 418 631 413 631 l 408 17 b 428 15 414 15 421 15 b 640 199 533 15 604 90 l 661 199 b 408 -14 626 82 551 -7 l 408 -118 l 390 -118 l 390 -14 b 46 319 188 -14 46 97 b 390 653 46 511 165 650 l 390 771 l 408 771 l 408 653 b 661 464 553 649 661 568 b 550 353 661 393 613 353 b 436 461 494 353 436 381 b 539 567 436 531 492 567 b 592 547 567 567 583 556 m 275 319 b 390 21 275 179 300 49 l 390 626 b 275 319 289 599 275 439 "},"£":{"ha":911,"x_min":0,"x_max":0,"o":"m 136 764 b 533 1056 136 958 289 1056 b 878 811 758 1056 878 925 b 761 679 878 733 828 679 b 633 799 699 679 633 722 b 754 917 633 868 693 917 b 822 886 793 917 814 894 b 569 1029 800 946 711 1029 b 374 813 425 1029 374 929 b 443 561 374 704 422 642 l 646 561 l 646 542 l 447 542 b 451 493 450 526 451 510 b 119 10 451 249 136 236 b 378 218 156 107 258 218 b 653 171 503 218 561 171 b 858 301 744 171 858 188 l 878 301 b 621 -42 878 31 779 -42 b 260 42 431 -42 347 42 b 119 -28 203 42 133 14 l 100 -28 b 249 363 74 165 249 274 b 201 542 249 432 226 488 l 21 542 l 21 561 l 193 561 b 136 764 165 622 136 683 "},"¥":{"ha":1024,"x_min":0,"x_max":0,"o":"m 419 19 l 419 296 l 213 296 l 213 315 l 419 315 l 419 500 l 417 504 l 213 504 l 213 524 l 406 524 l 114 1022 l 17 1022 l 17 1042 l 503 1042 l 503 1022 l 364 1022 l 625 558 l 876 1022 l 719 1022 l 719 1042 l 1011 1042 l 1011 1022 l 900 1022 l 636 532 l 636 524 l 824 524 l 824 504 l 636 504 l 636 315 l 824 315 l 824 296 l 636 296 l 636 19 l 775 19 l 775 0 l 294 0 l 294 19 "},"¦":{"ha":306,"x_min":0,"x_max":0,"o":"m 163 1083 l 163 568 l 143 568 l 143 1083 m 163 231 l 163 -347 l 143 -347 l 143 231 "},"§":{"ha":661,"x_min":0,"x_max":0,"o":"m 606 225 b 318 -14 606 81 492 -14 b 42 182 196 -14 42 35 b 146 296 42 246 83 296 b 242 197 201 296 242 254 b 143 106 242 146 197 106 b 86 125 115 106 92 119 b 318 11 117 47 218 11 b 501 140 447 11 501 81 b 67 486 501 294 67 281 b 176 669 67 576 126 633 b 93 831 128 707 93 757 b 347 1056 93 975 215 1056 b 603 861 463 1056 603 1008 b 497 747 603 797 560 747 b 403 847 442 747 403 790 b 503 942 403 899 449 942 b 558 922 528 942 550 928 b 347 1031 528 990 444 1031 b 188 906 267 1031 188 979 b 608 539 188 751 608 751 b 508 390 608 461 561 424 b 606 225 564 354 606 304 m 183 589 b 482 406 183 490 357 472 b 497 456 490 418 497 435 b 201 653 497 557 321 578 b 183 589 192 636 183 615 "},"©":{"ha":1208,"x_min":0,"x_max":0,"o":"m 69 521 b 604 1056 69 817 308 1056 b 1139 521 900 1056 1139 817 b 604 -14 1139 225 900 -14 b 69 521 308 -14 69 225 m 89 521 b 604 6 89 236 319 6 b 1119 521 889 6 1119 236 b 604 1036 1119 806 889 1036 b 89 521 319 1036 89 806 m 832 208 l 824 208 l 758 254 b 615 200 722 219 675 200 b 315 521 429 200 315 335 b 615 842 315 707 429 842 b 746 790 667 842 711 822 l 815 833 l 824 833 l 824 650 l 813 650 b 624 825 779 754 714 825 b 463 521 500 825 463 672 b 624 217 463 369 500 217 b 821 392 733 217 788 294 l 832 392 "},"ª":{"ha":490,"x_min":0,"x_max":0,"o":"m 476 722 b 367 661 458 681 414 661 b 268 735 314 661 268 679 l 268 750 b 139 661 251 692 207 661 b 26 764 72 661 26 701 b 208 885 26 833 89 885 l 268 885 l 268 924 b 189 1046 268 988 251 1046 b 114 1022 154 1046 128 1033 b 189 972 151 1031 189 1011 b 119 913 189 935 153 913 b 56 971 82 913 56 936 b 213 1060 56 1024 128 1060 b 385 924 350 1060 385 1000 l 385 717 b 417 688 385 700 396 688 b 468 726 431 688 451 696 l 476 722 m 200 703 b 268 821 231 703 268 732 l 268 872 l 238 872 b 153 776 188 872 153 829 b 200 703 153 733 168 703 "},"«":{"ha":1007,"x_min":0,"x_max":0,"o":"m 933 211 l 924 201 l 424 524 l 424 553 l 924 875 l 933 865 l 682 539 m 544 211 l 535 201 l 35 524 l 35 553 l 535 875 l 544 865 l 279 539 "},"¬":{"ha":675,"x_min":0,"x_max":0,"o":"m 83 835 l 83 854 l 592 854 l 592 574 l 572 574 l 572 835 "},"®":{"ha":1208,"x_min":0,"x_max":0,"o":"m 69 521 b 604 1056 69 817 308 1056 b 1139 521 900 1056 1139 817 b 604 -14 1139 225 900 -14 b 69 521 308 -14 69 225 m 89 521 b 604 6 89 236 319 6 b 1119 521 889 6 1119 236 b 604 1036 1119 806 889 1036 b 89 521 319 1036 89 806 m 408 217 l 408 819 l 325 819 l 325 831 l 617 831 b 850 676 754 831 850 785 b 663 526 850 581 781 535 b 874 217 935 525 771 217 b 917 228 890 217 904 222 l 919 215 b 819 199 907 208 868 199 b 594 521 592 199 800 521 l 536 521 l 536 217 l 619 217 l 619 206 l 325 206 l 325 217 m 536 819 l 536 532 l 594 532 b 717 676 675 532 717 578 b 594 819 717 775 675 819 "},"¯":{"ha":558,"x_min":0,"x_max":0,"o":"m 475 669 l 475 650 l 83 650 l 83 669 "},"°":{"ha":444,"x_min":0,"x_max":0,"o":"m 56 944 b 222 1111 56 1036 131 1111 b 389 944 314 1111 389 1036 b 222 778 389 853 314 778 b 56 944 131 778 56 853 m 115 944 b 222 838 115 883 161 838 b 329 944 283 838 329 883 b 222 1051 329 1006 283 1051 b 115 944 161 1051 115 1006 "},"±":{"ha":736,"x_min":0,"x_max":0,"o":"m 358 485 l 83 485 l 83 504 l 358 504 l 358 778 l 378 778 l 378 504 l 653 504 l 653 485 l 378 485 l 378 208 l 358 208 m 653 24 l 653 4 l 83 4 l 83 24 "},"µ":{"ha":840,"x_min":0,"x_max":0,"o":"m 358 -171 b 440 -264 404 -171 440 -211 b 310 -361 440 -318 411 -361 b 129 -168 213 -361 129 -293 l 129 111 b 119 196 122 138 119 165 l 119 619 l 25 619 l 25 639 l 314 639 l 314 206 b 392 42 314 89 333 42 b 544 329 493 42 544 193 l 544 619 l 453 619 l 453 639 l 739 639 l 739 19 l 833 19 l 833 0 l 544 0 l 544 194 b 317 -14 521 86 458 -14 b 147 67 228 -14 175 17 l 147 -168 b 322 -344 147 -285 219 -344 b 275 -250 286 -319 275 -285 b 358 -171 275 -204 313 -171 "},"·":{"ha":360,"x_min":0,"x_max":0,"o":"m 56 597 b 181 722 56 667 111 722 b 306 597 250 722 306 667 b 181 472 306 528 250 472 b 56 597 111 472 56 528 "},"º":{"ha":769,"x_min":0,"x_max":0,"o":"m 186 860 b 389 1060 186 968 264 1060 b 593 860 515 1060 593 968 b 389 660 593 751 515 660 b 186 860 264 660 186 751 m 311 860 b 389 671 311 761 328 671 b 468 860 451 671 468 761 b 389 1049 468 958 451 1049 b 311 860 328 1049 311 958 "},"»":{"ha":1011,"x_min":0,"x_max":0,"o":"m 78 865 l 88 875 l 588 553 l 588 524 l 88 201 l 78 211 l 329 538 m 467 865 l 476 875 l 976 553 l 976 524 l 476 201 l 467 211 l 732 538 "},"¼":{"ha":932,"x_min":0,"x_max":0,"o":"m 139 506 l 139 1108 l 44 1108 l 44 1119 l 268 1119 l 268 506 l 360 506 l 360 494 l 31 494 l 31 506 m 731 903 l 75 -139 l 56 -139 l 711 903 m 871 -143 l 600 -143 l 600 -132 l 679 -132 l 679 31 l 404 31 l 713 482 l 808 482 l 808 42 l 900 42 l 900 31 l 808 31 l 808 -132 l 871 -132 m 679 42 l 679 413 l 426 42 "},"½":{"ha":972,"x_min":0,"x_max":0,"o":"m 139 506 l 139 1108 l 44 1108 l 44 1119 l 268 1119 l 268 506 l 360 506 l 360 494 l 31 494 l 31 506 m 731 903 l 75 -139 l 56 -139 l 711 903 m 507 -140 l 507 -57 l 683 86 b 793 301 753 144 793 211 b 671 464 793 404 749 464 b 531 321 592 464 532 401 b 596 369 540 349 564 369 b 672 299 639 369 672 340 b 590 221 672 253 632 221 b 515 317 549 221 515 253 b 724 493 515 415 593 493 b 926 335 854 493 926 422 b 783 146 926 239 846 193 l 589 -15 l 933 -15 l 933 47 l 944 47 l 944 -140 "},"¾":{"ha":1015,"x_min":0,"x_max":0,"o":"m 450 663 b 221 483 450 550 346 483 b 28 626 89 483 28 557 b 100 703 28 672 58 703 b 167 633 138 703 167 676 b 96 567 167 594 133 567 b 54 585 75 567 61 576 b 199 501 68 544 117 501 b 315 663 289 501 315 572 b 172 824 315 736 292 824 l 172 835 b 290 985 283 835 290 926 b 207 1107 290 1050 264 1107 b 92 1049 154 1107 108 1078 b 125 1061 100 1057 113 1061 b 189 997 158 1061 189 1036 b 121 928 189 953 154 928 b 53 996 83 928 53 951 b 225 1124 53 1068 139 1124 b 425 981 333 1124 425 1072 b 239 829 425 907 385 844 b 450 663 396 815 450 747 m 814 903 l 158 -139 l 139 -139 l 794 903 m 954 -143 l 683 -143 l 683 -132 l 763 -132 l 763 31 l 488 31 l 796 482 l 892 482 l 892 42 l 983 42 l 983 31 l 892 31 l 892 -132 l 954 -132 m 763 42 l 763 413 l 510 42 "},"¿":{"ha":813,"x_min":0,"x_max":0,"o":"m 560 611 b 435 486 560 542 504 486 b 310 611 365 486 310 542 b 435 736 310 681 365 736 b 560 611 504 736 560 681 m 468 225 b 289 -56 340 185 289 74 b 449 -307 289 -186 311 -307 b 683 -150 568 -307 667 -214 b 614 -181 678 -160 653 -181 b 497 -76 553 -181 497 -143 b 611 36 497 -4 549 36 b 725 -85 681 36 725 -10 b 411 -333 725 -206 594 -333 b 65 -56 201 -333 65 -222 b 449 236 65 104 218 224 l 449 383 l 468 383 l 468 225 "},"À":{"ha":1086,"x_min":0,"x_max":0,"o":"m 396 1153 b 306 1229 349 1147 306 1182 b 410 1303 306 1276 356 1322 l 721 1197 l 715 1178 l 396 1153 m 146 19 l 514 1063 l 600 1063 l 963 19 l 1067 19 l 1067 0 l 594 0 l 594 19 l 713 19 l 613 331 l 276 331 l 168 19 l 331 19 l 331 0 l 25 0 l 25 19 m 283 350 l 606 350 l 450 828 "},"Á":{"ha":1086,"x_min":0,"x_max":0,"o":"m 389 1178 l 383 1197 l 694 1303 b 799 1229 749 1322 799 1276 b 708 1153 799 1182 756 1147 m 146 19 l 514 1063 l 600 1063 l 963 19 l 1067 19 l 1067 0 l 594 0 l 594 19 l 713 19 l 613 331 l 276 331 l 168 19 l 331 19 l 331 0 l 25 0 l 25 19 m 283 350 l 606 350 l 450 828 "},"Â":{"ha":1086,"x_min":0,"x_max":0,"o":"m 336 1115 l 326 1125 l 493 1313 l 611 1313 l 778 1125 l 768 1115 l 551 1215 m 146 19 l 514 1063 l 600 1063 l 963 19 l 1067 19 l 1067 0 l 594 0 l 594 19 l 713 19 l 613 331 l 276 331 l 168 19 l 331 19 l 331 0 l 25 0 l 25 19 m 283 350 l 606 350 l 450 828 "},"Ã":{"ha":1086,"x_min":0,"x_max":0,"o":"m 415 1256 b 336 1174 371 1256 336 1225 l 317 1174 b 454 1378 317 1292 365 1378 b 701 1268 565 1378 614 1268 b 781 1350 749 1268 781 1299 l 800 1350 b 676 1146 800 1218 779 1146 b 415 1256 569 1146 513 1256 m 146 19 l 514 1063 l 600 1063 l 963 19 l 1067 19 l 1067 0 l 594 0 l 594 19 l 713 19 l 613 331 l 276 331 l 168 19 l 331 19 l 331 0 l 25 0 l 25 19 m 283 350 l 606 350 l 450 828 "},"Ä":{"ha":1086,"x_min":0,"x_max":0,"o":"m 601 1253 b 708 1358 601 1311 649 1358 b 814 1253 767 1358 814 1311 b 708 1146 814 1193 767 1146 b 601 1253 649 1146 601 1193 m 303 1253 b 410 1358 303 1311 350 1358 b 515 1253 468 1358 515 1311 b 410 1146 515 1193 468 1146 b 303 1253 350 1146 303 1193 m 146 19 l 514 1063 l 600 1063 l 963 19 l 1067 19 l 1067 0 l 594 0 l 594 19 l 713 19 l 613 331 l 276 331 l 168 19 l 331 19 l 331 0 l 25 0 l 25 19 m 283 350 l 606 350 l 450 828 "},"Å":{"ha":1086,"x_min":0,"x_max":0,"o":"m 419 1254 b 558 1379 419 1325 474 1379 b 697 1254 643 1379 697 1325 b 558 1129 697 1183 643 1129 b 419 1254 474 1129 419 1183 m 503 1254 b 558 1149 503 1186 518 1149 b 614 1254 599 1149 614 1186 b 558 1360 614 1322 599 1360 b 503 1254 518 1360 503 1322 m 146 19 l 514 1063 l 600 1063 l 963 19 l 1067 19 l 1067 0 l 594 0 l 594 19 l 713 19 l 613 331 l 276 331 l 168 19 l 331 19 l 331 0 l 25 0 l 25 19 m 283 350 l 606 350 l 450 828 "},"Æ":{"ha":1451,"x_min":0,"x_max":0,"o":"m 140 19 l 729 1042 l 1396 1042 l 1396 757 l 1376 757 b 1111 1022 1356 906 1267 1022 l 944 1022 l 944 549 l 993 549 b 1161 706 1072 549 1140 613 l 1181 706 l 1181 365 l 1161 365 b 993 529 1140 458 1072 529 l 944 529 l 944 19 l 1097 19 b 1390 313 1281 19 1369 136 l 1410 313 l 1410 0 l 604 0 l 604 19 l 729 19 l 729 331 l 344 331 l 167 19 l 326 19 l 326 0 l 21 0 l 21 19 m 729 350 l 729 1003 l 356 350 "},"Ç":{"ha":975,"x_min":0,"x_max":0,"o":"m 535 -254 b 407 -169 535 -181 476 -169 l 525 -12 b 58 521 235 3 58 222 b 558 1056 58 831 249 1056 b 775 969 644 1056 718 1024 l 892 1042 l 906 1042 l 906 736 l 886 736 b 572 1028 831 910 722 1028 b 303 521 365 1028 303 774 b 572 14 303 268 365 14 b 900 306 756 14 846 144 l 919 306 l 919 0 l 906 0 l 797 76 b 558 -14 738 19 657 -14 b 550 -14 556 -14 553 -14 l 475 -114 b 689 -226 600 -118 689 -149 b 413 -361 689 -296 622 -361 l 413 -342 b 535 -254 494 -342 535 -304 "},"È":{"ha":871,"x_min":0,"x_max":0,"o":"m 264 1147 b 174 1224 217 1142 174 1176 b 278 1297 174 1271 224 1317 l 589 1192 l 583 1172 l 264 1147 m 581 365 b 414 529 560 458 493 529 l 364 529 l 364 19 l 511 19 b 811 313 701 19 790 136 l 831 313 l 831 0 l 25 0 l 25 19 l 150 19 l 150 1022 l 25 1022 l 25 1042 l 817 1042 l 817 757 l 797 757 b 525 1022 776 906 688 1022 l 364 1022 l 364 549 l 414 549 b 581 706 493 549 560 613 l 600 706 l 600 365 l 581 365 "},"É":{"ha":871,"x_min":0,"x_max":0,"o":"m 286 1172 l 281 1192 l 592 1297 b 696 1224 646 1317 696 1271 b 606 1147 696 1176 653 1142 m 581 365 b 414 529 560 458 493 529 l 364 529 l 364 19 l 511 19 b 811 313 701 19 790 136 l 831 313 l 831 0 l 25 0 l 25 19 l 150 19 l 150 1022 l 25 1022 l 25 1042 l 817 1042 l 817 757 l 797 757 b 525 1022 776 906 688 1022 l 364 1022 l 364 549 l 414 549 b 581 706 493 549 560 613 l 600 706 l 600 365 l 581 365 "},"Ê":{"ha":871,"x_min":0,"x_max":0,"o":"m 207 1108 l 197 1118 l 364 1306 l 482 1306 l 649 1118 l 639 1108 l 422 1208 m 581 365 b 414 529 560 458 493 529 l 364 529 l 364 19 l 511 19 b 811 313 701 19 790 136 l 831 313 l 831 0 l 25 0 l 25 19 l 150 19 l 150 1022 l 25 1022 l 25 1042 l 817 1042 l 817 757 l 797 757 b 525 1022 776 906 688 1022 l 364 1022 l 364 549 l 414 549 b 581 706 493 549 560 613 l 600 706 l 600 365 l 581 365 "},"Ë":{"ha":871,"x_min":0,"x_max":0,"o":"m 490 1246 b 597 1351 490 1304 538 1351 b 703 1246 656 1351 703 1304 b 597 1139 703 1186 656 1139 b 490 1246 538 1139 490 1186 m 192 1246 b 299 1351 192 1304 239 1351 b 404 1246 357 1351 404 1304 b 299 1139 404 1186 357 1139 b 192 1246 239 1139 192 1186 m 581 365 b 414 529 560 458 493 529 l 364 529 l 364 19 l 511 19 b 811 313 701 19 790 136 l 831 313 l 831 0 l 25 0 l 25 19 l 150 19 l 150 1022 l 25 1022 l 25 1042 l 817 1042 l 817 757 l 797 757 b 525 1022 776 906 688 1022 l 364 1022 l 364 549 l 414 549 b 581 706 493 549 560 613 l 600 706 l 600 365 l 581 365 "},"Ì":{"ha":579,"x_min":0,"x_max":0,"o":"m 142 1147 b 51 1224 94 1142 51 1176 b 156 1297 51 1271 101 1317 l 467 1192 l 461 1172 l 142 1147 m 178 19 l 178 1022 l 25 1022 l 25 1042 l 558 1042 l 558 1022 l 392 1022 l 392 19 l 558 19 l 558 0 l 25 0 l 25 19 "},"Í":{"ha":579,"x_min":0,"x_max":0,"o":"m 136 1172 l 131 1192 l 442 1297 b 546 1224 496 1317 546 1271 b 456 1147 546 1176 503 1142 m 178 19 l 178 1022 l 25 1022 l 25 1042 l 558 1042 l 558 1022 l 392 1022 l 392 19 l 558 19 l 558 0 l 25 0 l 25 19 "},"Î":{"ha":579,"x_min":0,"x_max":0,"o":"m 82 1143 l 72 1153 l 239 1340 l 357 1340 l 524 1153 l 514 1143 l 297 1243 m 178 19 l 178 1022 l 25 1022 l 25 1042 l 558 1042 l 558 1022 l 392 1022 l 392 19 l 558 19 l 558 0 l 25 0 l 25 19 "},"Ï":{"ha":579,"x_min":0,"x_max":0,"o":"m 346 1271 b 453 1376 346 1329 393 1376 b 558 1271 511 1376 558 1329 b 453 1164 558 1211 511 1164 b 346 1271 393 1164 346 1211 m 47 1271 b 154 1376 47 1329 94 1376 b 260 1271 213 1376 260 1329 b 154 1164 260 1211 213 1164 b 47 1271 94 1164 47 1211 m 178 19 l 178 1022 l 25 1022 l 25 1042 l 558 1042 l 558 1022 l 392 1022 l 392 19 l 558 19 l 558 0 l 25 0 l 25 19 "},"Ð":{"ha":1051,"x_min":0,"x_max":0,"o":"m 138 524 l 138 1085 l -29 1085 l -29 1104 l 565 1104 b 1271 583 1007 1104 1271 893 b 565 63 1271 274 989 63 l -29 63 l -29 82 l 138 82 l 138 504 l 42 504 l 42 524 m 424 504 l 424 82 l 565 82 b 944 583 851 82 944 310 b 565 1085 944 857 833 1085 l 424 1085 l 424 524 l 488 524 l 488 504 "},"Ñ":{"ha":1046,"x_min":0,"x_max":0,"o":"m 371 1228 b 292 1146 326 1228 292 1197 l 272 1146 b 410 1350 272 1264 321 1350 b 657 1240 521 1350 569 1240 b 736 1322 704 1240 736 1271 l 756 1322 b 632 1118 756 1190 735 1118 b 371 1228 525 1118 468 1228 m 167 19 l 167 1022 l 25 1022 l 25 1042 l 419 1042 l 860 356 l 860 1022 l 706 1022 l 706 1042 l 1026 1042 l 1026 1022 l 881 1022 l 881 -14 l 849 -14 l 189 1003 l 189 19 l 347 19 l 347 0 l 25 0 l 25 19 "},"Ò":{"ha":1058,"x_min":0,"x_max":0,"o":"m 392 1167 b 301 1243 344 1161 301 1196 b 406 1317 301 1290 351 1336 l 717 1211 l 711 1192 l 392 1167 m 531 -14 b 58 521 235 -14 58 218 b 531 1056 58 824 249 1056 b 1003 521 813 1056 1003 824 b 531 -14 1003 218 826 -14 m 531 1039 b 303 521 351 1039 303 808 b 531 3 303 233 338 3 b 761 521 724 3 761 233 b 531 1039 761 808 710 1039 "},"Ó":{"ha":1058,"x_min":0,"x_max":0,"o":"m 331 1192 l 325 1211 l 636 1317 b 740 1243 690 1336 740 1290 b 650 1167 740 1196 697 1161 m 531 -14 b 58 521 235 -14 58 218 b 531 1056 58 824 249 1056 b 1003 521 813 1056 1003 824 b 531 -14 1003 218 826 -14 m 531 1039 b 303 521 351 1039 303 808 b 531 3 303 233 338 3 b 761 521 724 3 761 233 b 531 1039 761 808 710 1039 "},"Ô":{"ha":1058,"x_min":0,"x_max":0,"o":"m 322 1143 l 313 1153 l 479 1340 l 597 1340 l 764 1153 l 754 1143 l 538 1243 m 531 -14 b 58 521 235 -14 58 218 b 531 1056 58 824 249 1056 b 1003 521 813 1056 1003 824 b 531 -14 1003 218 826 -14 m 531 1039 b 303 521 351 1039 303 808 b 531 3 303 233 338 3 b 761 521 724 3 761 233 b 531 1039 761 808 710 1039 "},"Õ":{"ha":1058,"x_min":0,"x_max":0,"o":"m 396 1228 b 317 1146 351 1228 317 1197 l 297 1146 b 435 1350 297 1264 346 1350 b 682 1240 546 1350 594 1240 b 761 1322 729 1240 761 1271 l 781 1322 b 657 1118 781 1190 760 1118 b 396 1228 550 1118 493 1228 m 531 -14 b 58 521 235 -14 58 218 b 531 1056 58 824 249 1056 b 1003 521 813 1056 1003 824 b 531 -14 1003 218 826 -14 m 531 1039 b 303 521 351 1039 303 808 b 531 3 303 233 338 3 b 761 521 724 3 761 233 b 531 1039 761 808 710 1039 "},"Ö":{"ha":1058,"x_min":0,"x_max":0,"o":"m 599 1271 b 706 1376 599 1329 646 1376 b 811 1271 764 1376 811 1329 b 706 1164 811 1211 764 1164 b 599 1271 646 1164 599 1211 m 300 1271 b 407 1376 300 1329 347 1376 b 513 1271 465 1376 513 1329 b 407 1164 513 1211 465 1164 b 300 1271 347 1164 300 1211 m 531 -14 b 58 521 235 -14 58 218 b 531 1056 58 824 249 1056 b 1003 521 813 1056 1003 824 b 531 -14 1003 218 826 -14 m 531 1039 b 303 521 351 1039 303 808 b 531 3 303 233 338 3 b 761 521 724 3 761 233 b 531 1039 761 808 710 1039 "},"×":{"ha":736,"x_min":0,"x_max":0,"o":"m 353 439 l 160 632 l 174 646 l 367 453 l 561 647 l 575 633 l 381 439 l 576 243 l 563 229 l 367 425 l 172 231 l 158 244 "},"Ø":{"ha":1058,"x_min":0,"x_max":0,"o":"m 531 -14 b 318 33 450 -14 379 3 l 239 -139 l 219 -139 l 303 42 b 58 521 146 128 58 307 b 531 1056 58 824 249 1056 b 743 1004 610 1056 681 1038 l 811 1153 l 831 1153 l 758 996 b 1003 521 910 908 1003 732 b 531 -14 1003 218 826 -14 m 531 1039 b 303 521 351 1039 303 808 b 349 143 303 371 313 238 l 701 914 b 531 1039 667 992 611 1039 m 761 521 b 711 892 761 667 747 799 l 358 121 b 531 3 392 47 446 3 b 761 521 724 3 761 233 "},"Ù":{"ha":1003,"x_min":0,"x_max":0,"o":"m 372 1153 b 282 1229 325 1147 282 1182 b 386 1303 282 1276 332 1322 l 697 1197 l 692 1178 l 372 1153 m 503 1042 l 503 1022 l 364 1022 l 364 333 b 578 11 364 150 399 11 b 833 319 725 11 833 103 l 833 1022 l 711 1022 l 711 1042 l 983 1042 l 983 1022 l 853 1022 l 853 319 b 525 -21 853 90 751 -21 b 150 319 264 -21 150 79 l 150 1022 l 25 1022 l 25 1042 "},"Ú":{"ha":1003,"x_min":0,"x_max":0,"o":"m 308 1178 l 303 1197 l 614 1303 b 718 1229 668 1322 718 1276 b 628 1153 718 1182 675 1147 m 503 1042 l 503 1022 l 364 1022 l 364 333 b 578 11 364 150 399 11 b 833 319 725 11 833 103 l 833 1022 l 711 1022 l 711 1042 l 983 1042 l 983 1022 l 853 1022 l 853 319 b 525 -21 853 90 751 -21 b 150 319 264 -21 150 79 l 150 1022 l 25 1022 l 25 1042 "},"Û":{"ha":1003,"x_min":0,"x_max":0,"o":"m 315 1143 l 306 1153 l 472 1340 l 590 1340 l 757 1153 l 747 1143 l 531 1243 m 503 1042 l 503 1022 l 364 1022 l 364 333 b 578 11 364 150 399 11 b 833 319 725 11 833 103 l 833 1022 l 711 1022 l 711 1042 l 983 1042 l 983 1022 l 853 1022 l 853 319 b 525 -21 853 90 751 -21 b 150 319 264 -21 150 79 l 150 1022 l 25 1022 l 25 1042 "},"Ü":{"ha":1003,"x_min":0,"x_max":0,"o":"m 576 1271 b 683 1376 576 1329 624 1376 b 789 1271 742 1376 789 1329 b 683 1164 789 1211 742 1164 b 576 1271 624 1164 576 1211 m 278 1271 b 385 1376 278 1329 325 1376 b 490 1271 443 1376 490 1329 b 385 1164 490 1211 443 1164 b 278 1271 325 1164 278 1211 m 503 1042 l 503 1022 l 364 1022 l 364 333 b 578 11 364 150 399 11 b 833 319 725 11 833 103 l 833 1022 l 711 1022 l 711 1042 l 983 1042 l 983 1022 l 853 1022 l 853 319 b 525 -21 853 90 751 -21 b 150 319 264 -21 150 79 l 150 1022 l 25 1022 l 25 1042 "},"Ý":{"ha":1024,"x_min":0,"x_max":0,"o":"m 361 1178 l 356 1197 l 667 1303 b 771 1229 721 1322 771 1276 b 681 1153 771 1182 728 1147 m 419 19 l 419 500 l 114 1022 l 17 1022 l 17 1042 l 503 1042 l 503 1022 l 364 1022 l 625 558 l 876 1022 l 719 1022 l 719 1042 l 1011 1042 l 1011 1022 l 900 1022 l 636 532 l 636 19 l 775 19 l 775 0 l 294 0 l 294 19 "},"Þ":{"ha":931,"x_min":0,"x_max":0,"o":"m 146 19 l 146 1022 l 21 1022 l 21 1042 l 486 1042 l 486 1022 l 361 1022 l 361 833 l 514 833 b 882 542 765 833 882 722 b 514 250 882 361 765 250 l 361 250 l 361 19 l 486 19 l 486 0 l 21 0 l 21 19 m 361 814 l 361 269 l 465 269 b 646 542 599 269 646 418 b 465 814 646 665 599 814 "},"ß":{"ha":1071,"x_min":0,"x_max":0,"o":"m 146 19 l 146 682 b 581 1056 146 936 354 1056 b 974 807 779 1056 974 957 b 661 563 974 674 872 585 b 1015 243 919 536 1015 404 b 689 -14 1015 76 857 -14 b 469 217 563 -14 469 75 b 590 335 469 294 528 335 b 700 229 646 335 700 300 b 586 125 700 164 640 125 b 501 167 556 125 515 140 b 668 8 510 76 590 8 b 792 222 771 8 792 133 b 560 554 792 353 767 554 l 560 572 b 750 793 711 572 750 704 b 574 1039 750 893 711 1039 b 354 668 401 1039 354 865 l 354 19 l 479 19 l 479 0 l 21 0 l 21 19 "},"à":{"ha":808,"x_min":0,"x_max":0,"o":"m 210 750 b 119 826 163 744 119 779 b 224 900 119 874 169 919 l 535 794 l 529 775 l 210 750 m 457 358 l 457 424 b 325 628 457 531 429 628 b 200 589 267 628 222 607 b 325 504 261 603 325 569 b 208 404 325 442 264 404 b 101 501 146 404 101 444 b 363 650 101 590 222 650 b 651 424 592 650 651 550 l 651 79 b 703 29 651 50 669 29 b 790 94 728 29 763 43 l 804 88 b 619 -14 772 18 700 -14 b 457 108 533 -14 457 17 l 457 135 b 240 -14 428 38 356 -14 b 53 157 131 -14 53 54 b 357 358 53 274 157 358 m 342 56 b 457 251 394 56 457 104 l 457 339 l 406 339 b 264 178 321 339 264 267 b 342 56 264 106 289 56 "},"á":{"ha":808,"x_min":0,"x_max":0,"o":"m 161 775 l 156 794 l 467 900 b 571 826 521 919 571 874 b 481 750 571 779 528 744 m 457 358 l 457 424 b 325 628 457 531 429 628 b 200 589 267 628 222 607 b 325 504 261 603 325 569 b 208 404 325 442 264 404 b 101 501 146 404 101 444 b 363 650 101 590 222 650 b 651 424 592 650 651 550 l 651 79 b 703 29 651 50 669 29 b 790 94 728 29 763 43 l 804 88 b 619 -14 772 18 700 -14 b 457 108 533 -14 457 17 l 457 135 b 240 -14 428 38 356 -14 b 53 157 131 -14 53 54 b 357 358 53 274 157 358 m 342 56 b 457 251 394 56 457 104 l 457 339 l 406 339 b 264 178 321 339 264 267 b 342 56 264 106 289 56 "},"â":{"ha":808,"x_min":0,"x_max":0,"o":"m 175 740 l 165 750 l 332 938 l 450 938 l 617 750 l 607 740 l 390 840 m 457 358 l 457 424 b 325 628 457 531 429 628 b 200 589 267 628 222 607 b 325 504 261 603 325 569 b 208 404 325 442 264 404 b 101 501 146 404 101 444 b 363 650 101 590 222 650 b 651 424 592 650 651 550 l 651 79 b 703 29 651 50 669 29 b 790 94 728 29 763 43 l 804 88 b 619 -14 772 18 700 -14 b 457 108 533 -14 457 17 l 457 135 b 240 -14 428 38 356 -14 b 53 157 131 -14 53 54 b 357 358 53 274 157 358 m 342 56 b 457 251 394 56 457 104 l 457 339 l 406 339 b 264 178 321 339 264 267 b 342 56 264 106 289 56 "},"ã":{"ha":808,"x_min":0,"x_max":0,"o":"m 254 846 b 175 764 210 846 175 815 l 156 764 b 293 968 156 882 204 968 b 540 858 404 968 453 858 b 619 940 588 858 619 889 l 639 940 b 515 736 639 808 618 736 b 254 846 408 736 351 846 m 457 358 l 457 424 b 325 628 457 531 429 628 b 200 589 267 628 222 607 b 325 504 261 603 325 569 b 208 404 325 442 264 404 b 101 501 146 404 101 444 b 363 650 101 590 222 650 b 651 424 592 650 651 550 l 651 79 b 703 29 651 50 669 29 b 790 94 728 29 763 43 l 804 88 b 619 -14 772 18 700 -14 b 457 108 533 -14 457 17 l 457 135 b 240 -14 428 38 356 -14 b 53 157 131 -14 53 54 b 357 358 53 274 157 358 m 342 56 b 457 251 394 56 457 104 l 457 339 l 406 339 b 264 178 321 339 264 267 b 342 56 264 106 289 56 "},"ä":{"ha":808,"x_min":0,"x_max":0,"o":"m 440 843 b 547 949 440 901 488 949 b 653 843 606 949 653 901 b 547 736 653 783 606 736 b 440 843 488 736 440 783 m 142 843 b 249 949 142 901 189 949 b 354 843 307 949 354 901 b 249 736 354 783 307 736 b 142 843 189 736 142 783 m 457 358 l 457 424 b 325 628 457 531 429 628 b 200 589 267 628 222 607 b 325 504 261 603 325 569 b 208 404 325 442 264 404 b 101 501 146 404 101 444 b 363 650 101 590 222 650 b 651 424 592 650 651 550 l 651 79 b 703 29 651 50 669 29 b 790 94 728 29 763 43 l 804 88 b 619 -14 772 18 700 -14 b 457 108 533 -14 457 17 l 457 135 b 240 -14 428 38 356 -14 b 53 157 131 -14 53 54 b 357 358 53 274 157 358 m 342 56 b 457 251 394 56 457 104 l 457 339 l 406 339 b 264 178 321 339 264 267 b 342 56 264 106 289 56 "},"å":{"ha":808,"x_min":0,"x_max":0,"o":"m 258 861 b 397 986 258 932 313 986 b 536 861 482 986 536 932 b 397 736 536 790 482 736 b 258 861 313 736 258 790 m 342 861 b 397 756 342 793 357 756 b 453 861 438 756 453 793 b 397 967 453 929 438 967 b 342 861 357 967 342 929 m 457 358 l 457 424 b 325 628 457 531 429 628 b 200 589 267 628 222 607 b 325 504 261 603 325 569 b 208 404 325 442 264 404 b 101 501 146 404 101 444 b 363 650 101 590 222 650 b 651 424 592 650 651 550 l 651 79 b 703 29 651 50 669 29 b 790 94 728 29 763 43 l 804 88 b 619 -14 772 18 700 -14 b 457 108 533 -14 457 17 l 457 135 b 240 -14 428 38 356 -14 b 53 157 131 -14 53 54 b 357 358 53 274 157 358 m 342 56 b 457 251 394 56 457 104 l 457 339 l 406 339 b 264 178 321 339 264 267 b 342 56 264 106 289 56 "},"æ":{"ha":1157,"x_min":0,"x_max":0,"o":"m 97 501 b 358 650 97 590 218 650 b 583 543 475 650 547 608 b 817 653 636 615 718 653 b 1121 350 1024 653 1121 501 l 694 350 b 694 333 694 344 694 339 b 856 11 694 175 721 11 b 1103 199 978 11 1068 90 l 1122 199 b 819 -14 1086 78 988 -14 b 571 117 711 -14 622 32 b 306 -14 519 32 418 -14 b 49 157 154 -14 49 40 b 353 361 49 274 156 361 l 453 361 l 453 424 b 322 628 453 517 433 628 b 193 588 267 628 218 610 b 321 504 254 604 321 569 b 204 404 321 442 260 404 b 97 501 142 404 97 444 m 914 369 b 817 633 913 486 906 633 b 694 369 728 633 699 513 l 914 369 m 347 8 b 453 217 406 8 453 90 l 453 342 l 401 342 b 260 167 317 342 260 267 b 347 8 260 74 292 8 "},"ç":{"ha":718,"x_min":0,"x_max":0,"o":"m 378 -242 b 250 -157 378 -168 319 -157 l 358 -12 b 46 319 172 -1 46 110 b 399 653 46 514 168 653 b 661 464 547 653 661 571 b 550 353 661 393 613 353 b 436 461 494 353 436 381 b 539 567 436 531 492 567 b 592 547 567 567 583 556 b 422 631 572 589 501 631 b 275 319 292 631 275 450 b 428 15 275 161 307 15 b 640 199 533 15 604 90 l 661 199 b 390 -14 625 78 544 -14 l 383 -14 l 318 -101 b 532 -214 443 -106 532 -136 b 256 -349 532 -283 465 -349 l 256 -329 b 378 -242 338 -329 378 -292 "},"è":{"ha":731,"x_min":0,"x_max":0,"o":"m 282 764 b 192 840 235 758 192 793 b 296 914 192 888 242 933 l 607 808 l 601 789 l 282 764 m 689 199 b 386 -14 653 78 554 -14 b 46 319 190 -14 46 104 b 383 653 46 535 188 653 b 688 353 590 653 688 504 l 261 353 b 261 333 261 346 261 340 b 422 11 261 154 292 11 b 671 199 544 11 636 92 l 689 199 m 383 633 b 261 372 296 633 267 514 l 481 372 b 383 633 481 486 472 633 "},"é":{"ha":731,"x_min":0,"x_max":0,"o":"m 178 789 l 172 808 l 483 914 b 588 840 538 933 588 888 b 497 764 588 793 544 758 m 689 199 b 386 -14 653 78 554 -14 b 46 319 190 -14 46 104 b 383 653 46 535 188 653 b 688 353 590 653 688 504 l 261 353 b 261 333 261 346 261 340 b 422 11 261 154 292 11 b 671 199 544 11 636 92 l 689 199 m 383 633 b 261 372 296 633 267 514 l 481 372 b 383 633 481 486 472 633 "},"ê":{"ha":731,"x_min":0,"x_max":0,"o":"m 185 706 l 175 715 l 342 903 l 460 903 l 626 715 l 617 706 l 400 806 m 689 199 b 386 -14 653 78 554 -14 b 46 319 190 -14 46 104 b 383 653 46 535 188 653 b 688 353 590 653 688 504 l 261 353 b 261 333 261 346 261 340 b 422 11 261 154 292 11 b 671 199 544 11 636 92 l 689 199 m 383 633 b 261 372 296 633 267 514 l 481 372 b 383 633 481 486 472 633 "},"ë":{"ha":731,"x_min":0,"x_max":0,"o":"m 439 843 b 546 949 439 901 486 949 b 651 843 604 949 651 901 b 546 736 651 783 604 736 b 439 843 486 736 439 783 m 140 843 b 247 949 140 901 188 949 b 353 843 306 949 353 901 b 247 736 353 783 306 736 b 140 843 188 736 140 783 m 689 199 b 386 -14 653 78 554 -14 b 46 319 190 -14 46 104 b 383 653 46 535 188 653 b 688 353 590 653 688 504 l 261 353 b 261 333 261 346 261 340 b 422 11 261 154 292 11 b 671 199 544 11 636 92 l 689 199 m 383 633 b 261 372 296 633 267 514 l 481 372 b 383 633 481 486 472 633 "},"ì":{"ha":444,"x_min":0,"x_max":0,"o":"m 35 750 b -56 826 -12 744 -56 779 b 49 900 -56 874 -6 919 l 360 794 l 354 775 l 35 750 m 125 19 l 125 619 l 28 619 l 28 639 l 319 639 l 319 19 l 417 19 l 417 0 l 28 0 l 28 19 "},"í":{"ha":444,"x_min":0,"x_max":0,"o":"m 0 775 l -6 794 l 306 900 b 410 826 360 919 410 874 b 319 750 410 779 367 744 m 125 19 l 125 619 l 28 619 l 28 639 l 319 639 l 319 19 l 417 19 l 417 0 l 28 0 l 28 19 "},"î":{"ha":444,"x_min":0,"x_max":0,"o":"m -28 740 l -37 750 l 129 938 l 247 938 l 414 750 l 404 740 l 188 840 m 125 19 l 125 619 l 28 619 l 28 639 l 319 639 l 319 19 l 417 19 l 417 0 l 28 0 l 28 19 "},"ï":{"ha":444,"x_min":0,"x_max":0,"o":"m 243 864 b 350 969 243 922 290 969 b 456 864 408 969 456 922 b 350 757 456 804 408 757 b 243 864 290 757 243 804 m -56 864 b 51 969 -56 922 -8 969 b 157 864 110 969 157 922 b 51 757 157 804 110 757 b -56 864 -8 757 -56 804 m 125 19 l 125 619 l 28 619 l 28 639 l 319 639 l 319 19 l 417 19 l 417 0 l 28 0 l 28 19 "},"ð":{"ha":847,"x_min":0,"x_max":0,"o":"m 778 431 b 404 -14 778 139 628 -14 b 42 347 181 -14 42 139 b 367 683 42 583 213 683 b 549 538 475 683 526 626 b 443 856 540 647 503 763 l 181 856 l 181 875 l 429 875 b 146 1039 360 972 264 1039 l 146 1056 b 596 875 325 1056 482 988 l 799 875 l 799 856 l 614 856 b 778 431 717 744 778 596 m 271 347 b 400 6 271 154 290 6 b 549 389 510 6 549 168 b 408 650 549 569 494 650 b 271 347 319 650 271 568 "},"ñ":{"ha":857,"x_min":0,"x_max":0,"o":"m 294 846 b 215 764 250 846 215 815 l 196 764 b 333 968 196 882 244 968 b 581 858 444 968 493 858 b 660 940 628 858 660 889 l 679 940 b 556 736 679 808 658 736 b 294 846 449 736 392 846 m 119 19 l 119 619 l 25 619 l 25 639 l 314 639 l 314 444 b 542 653 338 553 400 653 b 739 443 693 653 739 564 l 739 19 l 833 19 l 833 0 l 469 0 l 469 19 l 544 19 l 544 433 b 467 597 544 550 525 597 b 314 310 365 597 314 446 l 314 19 l 389 19 l 389 0 l 25 0 l 25 19 "},"ò":{"ha":769,"x_min":0,"x_max":0,"o":"m 278 758 b 188 835 231 753 188 788 b 292 908 188 882 238 928 l 603 803 l 597 783 l 278 758 m 46 319 b 385 653 46 500 175 653 b 724 319 594 653 724 500 b 385 -14 724 139 594 -14 b 46 319 175 -14 46 139 m 254 319 b 385 6 254 154 282 6 b 515 319 488 6 515 154 b 385 633 515 485 488 633 b 254 319 282 633 254 485 "},"ó":{"ha":769,"x_min":0,"x_max":0,"o":"m 200 783 l 194 803 l 506 908 b 610 835 560 928 610 882 b 519 758 610 788 567 753 m 46 319 b 385 653 46 500 175 653 b 724 319 594 653 724 500 b 385 -14 724 139 594 -14 b 46 319 175 -14 46 139 m 254 319 b 385 6 254 154 282 6 b 515 319 488 6 515 154 b 385 633 515 485 488 633 b 254 319 282 633 254 485 "},"ô":{"ha":769,"x_min":0,"x_max":0,"o":"m 175 740 l 165 750 l 332 938 l 450 938 l 617 750 l 607 740 l 390 840 m 46 319 b 385 653 46 500 175 653 b 724 319 594 653 724 500 b 385 -14 724 139 594 -14 b 46 319 175 -14 46 139 m 254 319 b 385 6 254 154 282 6 b 515 319 488 6 515 154 b 385 633 515 485 488 633 b 254 319 282 633 254 485 "},"õ":{"ha":769,"x_min":0,"x_max":0,"o":"m 249 846 b 169 764 204 846 169 815 l 150 764 b 288 968 150 882 199 968 b 535 858 399 968 447 858 b 614 940 582 858 614 889 l 633 940 b 510 736 633 808 613 736 b 249 846 403 736 346 846 m 46 319 b 385 653 46 500 175 653 b 724 319 594 653 724 500 b 385 -14 724 139 594 -14 b 46 319 175 -14 46 139 m 254 319 b 385 6 254 154 282 6 b 515 319 488 6 515 154 b 385 633 515 485 488 633 b 254 319 282 633 254 485 "},"ö":{"ha":769,"x_min":0,"x_max":0,"o":"m 440 843 b 547 949 440 901 488 949 b 653 843 606 949 653 901 b 547 736 653 783 606 736 b 440 843 488 736 440 783 m 142 843 b 249 949 142 901 189 949 b 354 843 307 949 354 901 b 249 736 354 783 307 736 b 142 843 189 736 142 783 m 46 319 b 385 653 46 500 175 653 b 724 319 594 653 724 500 b 385 -14 724 139 594 -14 b 46 319 175 -14 46 139 m 254 319 b 385 6 254 154 282 6 b 515 319 488 6 515 154 b 385 633 515 485 488 633 b 254 319 282 633 254 485 "},"÷":{"ha":847,"x_min":0,"x_max":0,"o":"m 299 806 b 424 931 299 875 354 931 b 549 806 493 931 549 875 b 424 681 549 736 493 681 b 299 806 354 681 299 736 m 785 558 l 785 539 l 63 539 l 63 558 m 299 271 b 424 396 299 340 354 396 b 549 271 493 396 549 340 b 424 146 549 201 493 146 b 299 271 354 146 299 201 "},"ø":{"ha":769,"x_min":0,"x_max":0,"o":"m 46 319 b 385 653 46 500 175 653 b 550 615 447 653 503 639 l 665 804 l 685 804 l 565 607 b 724 319 665 549 724 440 b 385 -14 724 139 594 -14 b 214 26 319 -14 261 1 l 93 -171 l 74 -171 l 199 35 b 46 319 101 94 46 201 m 254 319 b 268 149 254 258 258 199 l 494 521 b 385 633 475 589 442 633 b 254 319 282 633 254 485 m 515 319 b 500 499 515 385 511 447 l 274 126 b 385 6 292 54 326 6 b 515 319 488 6 515 154 "},"ù":{"ha":857,"x_min":0,"x_max":0,"o":"m 303 764 b 213 840 256 758 213 793 b 317 914 213 888 263 933 l 628 808 l 622 789 l 303 764 m 314 206 b 392 42 314 89 333 42 b 544 329 493 42 544 193 l 544 619 l 453 619 l 453 639 l 739 639 l 739 19 l 833 19 l 833 0 l 544 0 l 544 194 b 317 -14 521 86 458 -14 b 119 196 165 -14 119 75 l 119 619 l 25 619 l 25 639 l 314 639 "},"ú":{"ha":857,"x_min":0,"x_max":0,"o":"m 213 783 l 207 803 l 518 908 b 622 835 572 928 622 882 b 532 758 622 788 579 753 m 314 206 b 392 42 314 89 333 42 b 544 329 493 42 544 193 l 544 619 l 453 619 l 453 639 l 739 639 l 739 19 l 833 19 l 833 0 l 544 0 l 544 194 b 317 -14 521 86 458 -14 b 119 196 165 -14 119 75 l 119 619 l 25 619 l 25 639 l 314 639 "},"û":{"ha":857,"x_min":0,"x_max":0,"o":"m 174 740 l 164 750 l 331 938 l 449 938 l 615 750 l 606 740 l 389 840 m 314 206 b 392 42 314 89 333 42 b 544 329 493 42 544 193 l 544 619 l 453 619 l 453 639 l 739 639 l 739 19 l 833 19 l 833 0 l 544 0 l 544 194 b 317 -14 521 86 458 -14 b 119 196 165 -14 119 75 l 119 619 l 25 619 l 25 639 l 314 639 "},"ü":{"ha":857,"x_min":0,"x_max":0,"o":"m 499 868 b 606 974 499 926 546 974 b 711 868 664 974 711 926 b 606 761 711 808 664 761 b 499 868 546 761 499 808 m 200 868 b 307 974 200 926 247 974 b 413 868 365 974 413 926 b 307 761 413 808 365 761 b 200 868 247 761 200 808 m 314 206 b 392 42 314 89 333 42 b 544 329 493 42 544 193 l 544 619 l 453 619 l 453 639 l 739 639 l 739 19 l 833 19 l 833 0 l 544 0 l 544 194 b 317 -14 521 86 458 -14 b 119 196 165 -14 119 75 l 119 619 l 25 619 l 25 639 l 314 639 "},"ý":{"ha":822,"x_min":0,"x_max":0,"o":"m 264 789 l 258 808 l 569 914 b 674 840 624 933 674 888 b 583 764 674 793 631 758 m 418 -22 l 88 619 l -8 619 l -8 639 l 451 639 l 451 619 l 318 619 l 525 208 l 718 619 l 582 619 l 582 639 l 839 639 l 839 619 l 746 619 l 329 -264 b 206 -358 301 -322 265 -358 b 97 -254 150 -358 97 -321 b 208 -144 97 -194 143 -144 b 314 -243 267 -144 311 -190 "},"þ":{"ha":865,"x_min":0,"x_max":0,"o":"m 118 -328 l 118 1022 l 21 1022 l 21 1042 l 313 1042 l 313 456 b 529 651 342 582 415 651 b 824 319 681 651 824 528 b 529 -14 824 111 681 -14 b 313 183 415 -14 342 57 l 313 -328 l 410 -328 l 410 -347 l 21 -347 l 21 -328 m 313 319 b 478 21 313 114 404 21 b 601 319 564 21 601 128 b 481 617 601 511 567 617 b 313 319 403 617 313 525 "},"ÿ":{"ha":822,"x_min":0,"x_max":0,"o":"m 508 910 b 615 1015 508 968 556 1015 b 721 910 674 1015 721 968 b 615 803 721 850 674 803 b 508 910 556 803 508 850 m 210 910 b 317 1015 210 968 257 1015 b 422 910 375 1015 422 968 b 317 803 422 850 375 803 b 210 910 257 803 210 850 m 418 -22 l 88 619 l -8 619 l -8 639 l 451 639 l 451 619 l 318 619 l 525 208 l 718 619 l 582 619 l 582 639 l 839 639 l 839 619 l 746 619 l 329 -264 b 206 -358 301 -322 265 -358 b 97 -254 150 -358 97 -321 b 208 -144 97 -194 143 -144 b 314 -243 267 -144 311 -190 "},"ı":{"ha":444,"x_min":0,"x_max":0,"o":"m 125 19 l 125 619 l 28 619 l 28 639 l 319 639 l 319 19 l 417 19 l 417 0 l 28 0 l 28 19 "},"‘":{"ha":382,"x_min":0,"x_max":0,"o":"m 326 757 b 192 633 326 690 265 633 b 53 819 117 633 53 697 b 329 1081 53 958 163 1081 l 329 1061 b 76 786 188 1061 67 967 b 207 881 99 843 150 881 b 326 757 279 881 326 824 "},"’":{"ha":382,"x_min":0,"x_max":0,"o":"m 56 946 b 190 1069 56 1013 117 1069 b 329 883 265 1069 329 1006 b 53 622 329 744 219 622 l 53 642 b 306 917 194 642 315 736 b 175 822 283 860 232 822 b 56 946 103 822 56 879 "},"Ū":{"ha":1003,"x_min":0,"x_max":0,"o":"m 703 1161 l 703 1142 l 311 1142 l 311 1161 m 503 1042 l 503 1022 l 364 1022 l 364 333 b 578 11 364 150 399 11 b 833 319 725 11 833 103 l 833 1022 l 711 1022 l 711 1042 l 983 1042 l 983 1022 l 853 1022 l 853 319 b 525 -21 853 90 751 -21 b 150 319 264 -21 150 79 l 150 1022 l 25 1022 l 25 1042 "},"Ć":{"ha":975,"x_min":0,"x_max":0,"o":"m 358 1164 l 353 1183 l 664 1289 b 768 1215 718 1308 768 1263 b 678 1139 768 1168 725 1133 m 919 0 l 906 0 l 797 76 b 558 -14 738 19 657 -14 b 58 521 249 -14 58 211 b 558 1056 58 831 249 1056 b 775 969 644 1056 718 1024 l 892 1042 l 906 1042 l 906 736 l 886 736 b 572 1028 831 910 722 1028 b 303 521 365 1028 303 774 b 572 14 303 268 365 14 b 900 306 756 14 846 144 l 919 306 "},"Ų":{"ha":1003,"x_min":0,"x_max":0,"o":"m 688 -232 b 515 -333 667 -271 635 -333 b 343 -214 424 -333 343 -297 b 528 -21 343 -122 436 -57 l 525 -21 b 150 319 264 -21 150 79 l 150 1022 l 25 1022 l 25 1042 l 503 1042 l 503 1022 l 364 1022 l 364 333 b 578 11 364 150 399 11 b 833 319 725 11 833 103 l 833 1022 l 711 1022 l 711 1042 l 983 1042 l 983 1022 l 853 1022 l 853 319 b 582 -18 853 111 768 0 b 529 -171 556 -40 529 -97 b 593 -290 529 -246 553 -290 b 674 -225 632 -290 656 -258 l 688 -232 "},"ē":{"ha":731,"x_min":0,"x_max":0,"o":"m 583 760 l 583 740 l 192 740 l 192 760 m 689 199 b 386 -14 653 78 554 -14 b 46 319 190 -14 46 104 b 383 653 46 535 188 653 b 688 353 590 653 688 504 l 261 353 b 261 333 261 346 261 340 b 422 11 261 154 292 11 b 671 199 544 11 636 92 l 689 199 m 383 633 b 261 372 296 633 267 514 l 481 372 b 383 633 481 486 472 633 "},"ġ":{"ha":863,"x_min":0,"x_max":0,"o":"m 308 867 b 415 974 308 926 356 974 b 521 867 474 974 521 926 b 415 761 521 808 474 761 b 308 867 356 761 308 808 m 69 97 b 257 232 69 178 158 218 b 60 438 153 254 60 318 b 343 653 60 590 210 653 b 568 576 425 653 513 629 b 711 646 608 628 664 646 b 844 531 803 646 844 583 b 757 429 844 454 799 429 b 669 517 715 429 669 457 b 753 599 669 563 703 599 b 806 575 779 599 800 586 b 711 626 794 606 761 626 b 582 561 668 626 618 610 b 626 438 610 529 626 489 b 343 224 626 285 476 224 b 303 225 329 224 317 224 b 192 161 249 217 192 197 b 333 117 192 119 257 117 b 453 118 382 117 414 118 b 685 -114 557 118 685 75 b 358 -361 685 -282 546 -361 b 25 -183 194 -361 25 -312 b 194 -33 25 -82 124 -44 b 69 97 122 -15 69 25 m 261 438 b 343 243 261 321 268 243 b 425 438 397 243 425 321 b 343 633 425 554 397 633 b 261 438 289 633 261 554 m 192 -147 b 372 -339 192 -256 253 -339 b 617 -171 494 -339 617 -294 b 456 -47 617 -90 546 -47 l 311 -47 b 232 -42 283 -47 257 -46 b 192 -147 197 -71 192 -121 "},"ľ":{"ha":743,"x_min":0,"x_max":0,"o":"m 433 1001 b 568 1125 433 1068 494 1125 b 707 939 643 1125 707 1061 b 431 678 707 800 597 678 l 431 697 b 683 972 572 697 693 792 b 553 878 661 915 610 878 b 433 1001 481 878 433 935 m 147 19 l 147 1022 l 25 1022 l 25 1042 l 342 1042 l 342 19 l 464 19 l 464 0 l 25 0 l 25 19 "},"ŭ":{"ha":857,"x_min":0,"x_max":0,"o":"m 236 971 b 383 882 236 907 308 882 b 531 971 458 882 531 907 l 550 971 b 383 750 550 838 501 750 b 217 971 265 750 217 838 l 236 971 m 314 206 b 392 42 314 89 333 42 b 544 329 493 42 544 193 l 544 619 l 453 619 l 453 639 l 739 639 l 739 19 l 833 19 l 833 0 l 544 0 l 544 194 b 317 -14 521 86 458 -14 b 119 196 165 -14 119 75 l 119 619 l 25 619 l 25 639 l 314 639 "},"Ě":{"ha":871,"x_min":0,"x_max":0,"o":"m 643 1336 l 653 1326 l 486 1139 l 368 1139 l 201 1326 l 211 1336 l 426 1236 m 581 365 b 414 529 560 458 493 529 l 364 529 l 364 19 l 511 19 b 811 313 701 19 790 136 l 831 313 l 831 0 l 25 0 l 25 19 l 150 19 l 150 1022 l 25 1022 l 25 1042 l 817 1042 l 817 757 l 797 757 b 525 1022 776 906 688 1022 l 364 1022 l 364 549 l 414 549 b 581 706 493 549 560 613 l 600 706 l 600 365 l 581 365 "},"ŀ":{"ha":706,"x_min":0,"x_max":0,"o":"m 147 19 l 147 1022 l 25 1022 l 25 1042 l 342 1042 l 342 19 l 464 19 l 464 0 l 25 0 l 25 19 m 417 597 b 542 722 417 667 472 722 b 667 597 611 722 667 667 b 542 472 667 528 611 472 b 417 597 472 472 417 528 "},"Š":{"ha":829,"x_min":0,"x_max":0,"o":"m 631 1336 l 640 1326 l 474 1139 l 356 1139 l 189 1326 l 199 1336 l 414 1236 m 58 -14 l 58 313 l 78 313 b 417 1 128 165 228 1 b 631 199 550 1 631 79 b 72 778 631 463 72 375 b 381 1056 72 951 219 1056 b 592 975 465 1056 535 1028 l 706 1056 l 719 1056 l 719 743 l 700 743 b 392 1032 644 918 539 1032 b 219 872 279 1032 219 968 b 775 299 219 636 775 697 b 428 -21 775 104 624 -21 b 192 74 325 -21 250 17 l 72 -14 "},"Ľ":{"ha":917,"x_min":0,"x_max":0,"o":"m 589 1015 b 724 1139 589 1082 650 1139 b 863 953 799 1139 863 1075 b 586 692 863 814 753 692 l 586 711 b 839 986 728 711 849 806 b 708 892 817 929 765 892 b 589 1015 636 892 589 949 m 25 0 l 25 19 l 150 19 l 150 1022 l 25 1022 l 25 1042 l 489 1042 l 489 1022 l 364 1022 l 364 19 l 507 19 b 807 313 711 19 786 136 l 826 313 l 826 0 "},"Ĉ":{"ha":975,"x_min":0,"x_max":0,"o":"m 350 1108 l 340 1118 l 507 1306 l 625 1306 l 792 1118 l 782 1108 l 565 1208 m 919 0 l 906 0 l 797 76 b 558 -14 738 19 657 -14 b 58 521 249 -14 58 211 b 558 1056 58 831 249 1056 b 775 969 644 1056 718 1024 l 892 1042 l 906 1042 l 906 736 l 886 736 b 572 1028 831 910 722 1028 b 303 521 365 1028 303 774 b 572 14 303 268 365 14 b 900 306 756 14 846 144 l 919 306 "},"­":{"ha":500,"x_min":0,"x_max":0,"o":"m 417 392 l 417 372 l 83 372 l 83 392 "},"ů":{"ha":857,"x_min":0,"x_max":0,"o":"m 251 861 b 390 986 251 932 306 986 b 529 861 475 986 529 932 b 390 736 529 790 475 736 b 251 861 306 736 251 790 m 335 861 b 390 756 335 793 350 756 b 446 861 431 756 446 793 b 390 967 446 929 431 967 b 335 861 350 967 335 929 m 314 206 b 392 42 314 89 333 42 b 544 329 493 42 544 193 l 544 619 l 453 619 l 453 639 l 739 639 l 739 19 l 833 19 l 833 0 l 544 0 l 544 194 b 317 -14 521 86 458 -14 b 119 196 165 -14 119 75 l 119 619 l 25 619 l 25 639 l 314 639 "},"‾":{"ha":500,"x_min":0,"x_max":0,"o":"m 507 1107 l 507 1088 l -7 1088 l -7 1107 "},"ẞ":{"ha":1238,"x_min":0,"x_max":0,"o":"m 146 19 l 146 613 b 733 1056 146 908 403 1056 b 1140 911 946 1056 1092 964 l 863 561 b 1182 281 1106 521 1182 413 b 800 -14 1182 93 1010 -14 b 479 224 582 -14 479 110 b 600 353 479 301 531 353 b 711 236 663 353 711 307 b 593 125 711 171 654 125 b 518 161 554 125 526 147 b 758 11 533 96 624 11 b 956 278 906 11 956 126 b 636 558 956 401 906 558 l 636 576 l 964 986 b 733 1033 917 1008 836 1033 b 368 599 464 1033 368 858 l 368 19 l 493 19 l 493 0 l 21 0 l 21 19 "},"‑":{"ha":399,"x_min":0,"x_max":0,"o":"m 315 392 l 315 372 l 83 372 l 83 392 "},"ķ":{"ha":882,"x_min":0,"x_max":0,"o":"m 147 19 l 147 1022 l 25 1022 l 25 1042 l 342 1042 l 342 397 l 653 619 l 499 619 l 499 639 l 803 639 l 803 619 l 686 619 l 467 458 l 804 19 l 872 19 l 872 0 l 482 0 l 482 19 l 564 19 l 342 317 l 342 19 l 419 19 l 419 0 l 25 0 l 25 19 m 321 -207 b 456 -83 321 -140 382 -83 b 594 -269 531 -83 594 -147 b 318 -531 594 -408 485 -531 l 318 -511 b 571 -236 460 -511 581 -417 b 440 -331 549 -293 497 -331 b 321 -207 368 -331 321 -274 "},"‰":{"ha":2097,"x_min":0,"x_max":0,"o":"m 49 750 b 354 1056 49 949 197 1056 b 660 750 511 1056 660 949 b 354 444 660 551 483 444 b 49 750 197 444 49 551 m 1076 1042 l 364 0 l 340 0 l 1053 1042 m 264 750 b 354 464 264 569 286 464 b 444 750 422 464 444 569 b 354 1036 444 931 422 1036 b 264 750 286 1036 264 931 m 1438 292 b 1743 597 1438 490 1586 597 b 2049 292 1900 597 2049 490 b 1743 -14 2049 93 1872 -14 b 1438 292 1586 -14 1438 93 m 757 292 b 1063 597 757 490 906 597 b 1368 292 1219 597 1368 490 b 1063 -14 1368 93 1192 -14 b 757 292 906 -14 757 93 m 1653 292 b 1743 6 1653 111 1675 6 b 1833 292 1811 6 1833 111 b 1743 578 1833 472 1811 578 b 1653 292 1675 578 1653 472 m 972 292 b 1063 6 972 111 994 6 b 1153 292 1131 6 1153 111 b 1063 578 1153 472 1131 578 b 972 292 994 578 972 472 "},"ĳ":{"ha":829,"x_min":0,"x_max":0,"o":"m 92 938 b 211 1056 92 1004 144 1056 b 328 938 278 1056 328 1004 b 211 819 328 871 278 819 b 92 938 144 819 92 871 m 506 938 b 622 1056 506 1004 556 1056 b 742 938 689 1056 742 1004 b 622 819 742 871 689 819 b 506 938 556 819 506 871 m 128 19 l 128 619 l 32 619 l 32 639 l 322 639 l 322 19 l 417 19 l 417 0 l 32 0 l 32 19 m 731 -17 b 431 -361 731 -199 625 -361 b 217 -197 304 -361 217 -289 b 331 -82 217 -128 269 -82 b 444 -185 386 -82 444 -115 b 322 -290 444 -251 394 -290 b 278 -261 297 -290 281 -275 b 414 -339 283 -294 336 -339 b 536 28 560 -339 536 -149 l 536 619 l 414 619 l 414 639 l 731 639 "},"į":{"ha":438,"x_min":0,"x_max":0,"o":"m 92 938 b 211 1056 92 1004 144 1056 b 328 938 278 1056 328 1004 b 211 819 328 871 278 819 b 92 938 144 819 92 871 m 128 19 l 128 619 l 32 619 l 32 639 l 322 639 l 322 19 l 417 19 l 417 0 l 231 0 b 174 -156 203 -19 174 -79 b 238 -275 174 -231 197 -275 b 318 -210 276 -275 300 -243 l 332 -217 b 160 -318 311 -256 279 -318 b -12 -199 68 -318 -12 -282 b 188 0 -12 -101 90 -36 l 32 0 l 32 19 "},"Ż":{"ha":857,"x_min":0,"x_max":0,"o":"m 326 1244 b 433 1351 326 1304 374 1351 b 539 1244 492 1351 539 1304 b 433 1139 539 1186 492 1139 b 326 1244 374 1139 326 1186 m 794 1042 l 794 1022 l 261 19 l 517 19 b 789 285 707 19 761 108 l 808 285 l 808 0 l 17 0 l 17 19 l 553 1022 l 336 1022 b 64 785 146 1022 92 933 l 44 785 l 44 1042 "},"ż":{"ha":661,"x_min":0,"x_max":0,"o":"m 242 842 b 349 949 242 901 289 949 b 454 842 407 949 454 901 b 349 736 454 783 407 736 b 242 842 289 736 242 783 m 283 619 b 76 400 153 619 97 540 l 57 400 l 57 639 l 614 639 l 614 619 l 238 19 l 378 19 b 618 256 540 19 597 83 l 636 256 l 636 0 l 18 0 l 18 19 l 393 619 l 283 619 "},"ĺ":{"ha":489,"x_min":0,"x_max":0,"o":"m 46 1136 l 40 1156 l 351 1261 b 456 1188 406 1281 456 1235 b 365 1111 456 1140 413 1106 m 147 19 l 147 1022 l 25 1022 l 25 1042 l 342 1042 l 342 19 l 464 19 l 464 0 l 25 0 l 25 19 "},"Ś":{"ha":829,"x_min":0,"x_max":0,"o":"m 297 1150 l 292 1169 l 603 1275 b 707 1201 657 1294 707 1249 b 617 1125 707 1154 664 1119 m 58 -14 l 58 313 l 78 313 b 417 1 128 165 228 1 b 631 199 550 1 631 79 b 72 778 631 463 72 375 b 381 1056 72 951 219 1056 b 592 975 465 1056 535 1028 l 706 1056 l 719 1056 l 719 743 l 700 743 b 392 1032 644 918 539 1032 b 219 872 279 1032 219 968 b 775 299 219 636 775 697 b 428 -21 775 104 624 -21 b 192 74 325 -21 250 17 l 72 -14 "},"Ŕ":{"ha":1031,"x_min":0,"x_max":0,"o":"m 289 1178 l 283 1197 l 594 1303 b 699 1229 649 1322 699 1276 b 608 1153 699 1182 656 1147 m 164 19 l 164 1022 l 25 1022 l 25 1042 l 511 1042 b 900 785 742 1042 900 965 b 589 535 900 624 786 550 b 939 19 1040 532 768 19 b 1011 36 968 19 992 28 l 1017 17 b 850 -11 994 4 931 -11 b 475 525 471 -11 817 525 l 378 525 l 378 19 l 517 19 l 517 0 l 25 0 l 25 19 m 378 1022 l 378 544 l 475 544 b 678 785 608 544 678 619 b 475 1022 678 950 608 1022 "},"Ė":{"ha":871,"x_min":0,"x_max":0,"o":"m 326 1244 b 433 1351 326 1304 374 1351 b 539 1244 492 1351 539 1304 b 433 1139 539 1186 492 1139 b 326 1244 374 1139 326 1186 m 581 365 b 414 529 560 458 493 529 l 364 529 l 364 19 l 511 19 b 811 313 701 19 790 136 l 831 313 l 831 0 l 25 0 l 25 19 l 150 19 l 150 1022 l 25 1022 l 25 1042 l 817 1042 l 817 757 l 797 757 b 525 1022 776 906 688 1022 l 364 1022 l 364 549 l 414 549 b 581 706 493 549 560 613 l 600 706 l 600 365 l 581 365 "},"ĭ":{"ha":444,"x_min":0,"x_max":0,"o":"m 58 971 b 206 882 58 907 131 882 b 353 971 281 882 353 907 l 372 971 b 206 750 372 838 324 750 b 39 971 88 750 39 838 l 58 971 m 125 19 l 125 619 l 28 619 l 28 639 l 319 639 l 319 19 l 417 19 l 417 0 l 28 0 l 28 19 "},"Ř":{"ha":1031,"x_min":0,"x_max":0,"o":"m 713 1301 l 722 1292 l 556 1104 l 438 1104 l 271 1292 l 281 1301 l 496 1201 m 164 19 l 164 1022 l 25 1022 l 25 1042 l 511 1042 b 900 785 742 1042 900 965 b 589 535 900 624 786 550 b 939 19 1040 532 768 19 b 1011 36 968 19 992 28 l 1017 17 b 850 -11 994 4 931 -11 b 475 525 471 -11 817 525 l 378 525 l 378 19 l 517 19 l 517 0 l 25 0 l 25 19 m 378 1022 l 378 544 l 475 544 b 678 785 608 544 678 619 b 475 1022 678 950 608 1022 "},"ﬂ":{"ha":933,"x_min":0,"x_max":0,"o":"m 142 19 l 142 619 l 17 619 l 17 639 l 142 639 l 142 711 b 486 1056 142 907 285 1056 b 615 1014 539 1056 583 1040 l 808 1069 l 808 19 l 919 19 l 919 0 l 17 0 l 17 19 m 331 619 l 331 19 l 614 19 l 614 785 b 569 776 600 779 586 776 b 458 879 514 776 458 810 b 567 986 458 949 506 986 b 614 969 588 986 603 978 l 614 983 b 492 1036 592 1010 550 1036 b 331 750 375 1036 331 926 l 331 639 l 521 639 l 521 619 "},"Ĳ":{"ha":1300,"x_min":0,"x_max":0,"o":"m 178 19 l 178 1022 l 25 1022 l 25 1042 l 558 1042 l 558 1022 l 392 1022 l 392 19 l 558 19 l 558 0 l 25 0 l 25 19 m 1282 1042 l 1282 1022 l 1143 1022 l 1143 236 b 810 -42 1088 104 1013 -42 b 579 146 668 -42 579 42 b 707 278 579 225 638 278 b 826 154 769 278 826 232 b 707 31 826 85 774 31 b 649 46 683 31 660 38 b 804 -22 676 13 732 -22 b 929 264 906 -22 929 69 l 929 1022 l 749 1022 l 749 1042 "},"Ň":{"ha":1046,"x_min":0,"x_max":0,"o":"m 758 1301 l 768 1292 l 601 1104 l 483 1104 l 317 1292 l 326 1301 l 542 1201 m 167 19 l 167 1022 l 25 1022 l 25 1042 l 419 1042 l 860 356 l 860 1022 l 706 1022 l 706 1042 l 1026 1042 l 1026 1022 l 881 1022 l 881 -14 l 849 -14 l 189 1003 l 189 19 l 347 19 l 347 0 l 25 0 l 25 19 "},"Ī":{"ha":579,"x_min":0,"x_max":0,"o":"m 494 1163 l 494 1143 l 103 1143 l 103 1163 m 178 19 l 178 1022 l 25 1022 l 25 1042 l 558 1042 l 558 1022 l 392 1022 l 392 19 l 558 19 l 558 0 l 25 0 l 25 19 "},"Ġ":{"ha":1051,"x_min":0,"x_max":0,"o":"m 463 1269 b 569 1376 463 1329 510 1376 b 675 1269 628 1376 675 1329 b 569 1164 675 1211 628 1164 b 463 1269 510 1164 463 1211 m 1039 406 l 1039 386 l 969 386 l 969 215 b 553 -14 879 121 779 -14 b 58 521 243 -14 58 197 b 572 1056 58 844 290 1056 b 793 978 651 1056 731 1026 l 919 1042 l 933 1042 l 933 736 l 914 736 b 592 1028 882 881 753 1028 b 303 521 385 1028 303 774 b 553 10 303 268 353 10 b 739 174 669 10 718 115 l 739 386 l 594 386 l 594 406 "},"Ĵ":{"ha":740,"x_min":0,"x_max":0,"o":"m 229 1108 l 219 1118 l 386 1306 l 504 1306 l 671 1118 l 661 1108 l 444 1208 m 719 1042 l 719 1022 l 581 1022 l 581 236 b 247 -42 525 104 450 -42 b 17 146 106 -42 17 42 b 144 278 17 225 75 278 b 264 154 207 278 264 232 b 144 31 264 85 211 31 b 86 46 121 31 97 38 b 242 -22 114 13 169 -22 b 367 264 343 -22 367 69 l 367 1022 l 186 1022 l 186 1042 "},"ﬄ":{"ha":1375,"x_min":0,"x_max":0,"o":"m 142 19 l 142 619 l 17 619 l 17 639 l 142 639 l 142 642 b 500 986 142 836 292 986 b 650 932 561 986 614 964 b 919 1056 711 1008 806 1056 b 1050 1014 974 1056 1017 1040 l 1243 1069 l 1243 19 l 1354 19 l 1354 0 l 17 0 l 17 19 m 764 619 l 764 19 l 1049 19 l 1049 785 b 1004 776 1035 779 1021 776 b 892 879 949 776 892 810 b 1000 986 892 949 939 986 b 1049 969 1022 986 1038 978 l 1049 983 b 926 1036 1026 1011 982 1036 b 764 750 810 1036 764 926 l 764 639 l 956 639 l 956 619 m 331 639 l 576 639 l 576 708 b 486 811 529 717 486 750 b 592 917 486 881 531 917 b 632 907 607 917 622 913 b 636 913 633 908 635 910 b 506 965 614 939 565 965 b 331 681 399 965 331 857 m 576 19 l 576 619 l 331 619 l 331 19 "},"‒":{"ha":618,"x_min":0,"x_max":0,"o":"m 535 392 l 535 372 l 83 372 l 83 392 "},"ȷ":{"ha":444,"x_min":0,"x_max":0,"o":"m 343 -17 b 42 -361 343 -199 236 -361 b -171 -197 -85 -361 -171 -289 b -57 -82 -171 -126 -118 -82 b 56 -185 -1 -82 56 -115 b -65 -290 56 -253 8 -290 b -110 -261 -90 -290 -107 -275 b 26 -339 -104 -294 -51 -339 b 147 28 172 -339 147 -149 l 149 619 l 24 619 l 24 639 l 343 639 "},"ť":{"ha":689,"x_min":0,"x_max":0,"o":"m 389 1071 b 524 1194 389 1138 450 1194 b 663 1008 599 1194 663 1131 b 386 747 663 869 553 747 l 386 767 b 639 1042 528 767 649 861 b 508 947 617 985 565 947 b 389 1071 436 947 389 1004 m 497 142 b 274 -10 464 53 386 -10 b 113 161 139 -10 113 64 l 113 619 l 11 619 l 11 639 l 113 639 l 113 778 b 307 819 175 778 258 792 l 307 639 l 456 639 l 456 619 l 307 619 l 307 133 b 360 38 307 64 322 38 b 481 149 401 38 453 82 l 497 142 "},"ę":{"ha":731,"x_min":0,"x_max":0,"o":"m 579 -219 b 407 -321 558 -258 526 -321 b 235 -201 315 -321 235 -285 b 408 -14 235 -114 319 -51 b 386 -14 400 -14 393 -14 b 46 319 190 -14 46 104 b 383 653 46 535 188 653 b 688 353 590 653 688 504 l 261 353 b 261 333 261 346 261 340 b 422 11 261 154 292 11 b 671 199 544 11 636 92 l 689 199 b 476 -4 660 101 590 22 b 421 -158 449 -25 421 -83 b 485 -278 421 -233 444 -278 b 565 -212 524 -278 547 -246 l 579 -219 m 383 633 b 261 372 296 633 267 514 l 481 372 b 383 633 481 486 472 633 "},"ŗ":{"ha":661,"x_min":0,"x_max":0,"o":"m 119 19 l 119 619 l 25 619 l 25 639 l 314 639 l 314 478 b 494 653 335 578 383 653 b 650 506 572 653 650 594 b 536 386 650 442 610 386 b 419 497 469 386 419 428 b 581 586 419 583 514 626 b 492 632 564 617 528 632 b 314 310 347 632 314 454 l 314 19 l 408 19 l 408 0 l 25 0 l 25 19 m 90 -207 b 225 -83 90 -140 151 -83 b 364 -269 300 -83 364 -147 b 88 -531 364 -408 254 -531 l 88 -511 b 340 -236 229 -511 350 -417 b 210 -331 318 -293 267 -331 b 90 -207 138 -331 90 -274 "},"č":{"ha":718,"x_min":0,"x_max":0,"o":"m 622 933 l 632 924 l 465 736 l 347 736 l 181 924 l 190 933 l 406 833 m 592 547 b 422 631 572 589 501 631 b 275 319 292 631 275 450 b 428 15 275 161 307 15 b 640 199 533 15 604 90 l 661 199 b 390 -14 625 78 544 -14 b 46 319 188 -14 46 97 b 399 653 46 514 168 653 b 661 464 547 653 661 571 b 550 353 661 393 613 353 b 436 461 494 353 436 381 b 539 567 436 531 492 567 b 592 547 567 567 583 556 "},"ņ":{"ha":857,"x_min":0,"x_max":0,"o":"m 119 19 l 119 619 l 25 619 l 25 639 l 314 639 l 314 444 b 542 653 338 553 400 653 b 739 443 693 653 739 564 l 739 19 l 833 19 l 833 0 l 469 0 l 469 19 l 544 19 l 544 433 b 467 597 544 550 525 597 b 314 310 365 597 314 446 l 314 19 l 389 19 l 389 0 l 25 0 l 25 19 m 303 -207 b 438 -83 303 -140 364 -83 b 576 -269 513 -83 576 -147 b 300 -531 576 -408 467 -531 l 300 -511 b 553 -236 442 -511 563 -417 b 422 -331 531 -293 479 -331 b 303 -207 350 -331 303 -274 "},"ě":{"ha":731,"x_min":0,"x_max":0,"o":"m 606 933 l 615 924 l 449 736 l 331 736 l 164 924 l 174 933 l 389 833 m 689 199 b 386 -14 653 78 554 -14 b 46 319 190 -14 46 104 b 383 653 46 535 188 653 b 688 353 590 653 688 504 l 261 353 b 261 333 261 346 261 340 b 422 11 261 154 292 11 b 671 199 544 11 636 92 l 689 199 m 383 633 b 261 372 296 633 267 514 l 481 372 b 383 633 481 486 472 633 "},"π":{"ha":876,"x_min":0,"x_max":0,"o":"m 172 -14 b 56 81 101 -14 56 25 b 274 388 56 210 274 149 l 274 444 l 76 444 l 76 340 l 57 340 l 57 639 l 800 639 l 800 444 l 675 444 l 675 124 b 728 72 675 96 692 72 b 814 151 757 72 786 96 l 828 143 b 643 -14 796 46 740 -14 b 481 115 550 -14 481 26 l 481 444 l 351 444 l 351 338 b 172 -14 351 118 288 -14 "},"ć":{"ha":718,"x_min":0,"x_max":0,"o":"m 194 783 l 189 803 l 500 908 b 604 835 554 928 604 882 b 514 758 604 788 561 753 m 592 547 b 422 631 572 589 501 631 b 275 319 292 631 275 450 b 428 15 275 161 307 15 b 640 199 533 15 604 90 l 661 199 b 390 -14 625 78 544 -14 b 46 319 188 -14 46 97 b 399 653 46 514 168 653 b 661 464 547 653 661 571 b 550 353 661 393 613 353 b 436 461 494 353 436 381 b 539 567 436 531 492 567 b 592 547 567 567 583 556 "},"Ŝ":{"ha":829,"x_min":0,"x_max":0,"o":"m 206 1108 l 196 1118 l 363 1306 l 481 1306 l 647 1118 l 638 1108 l 421 1208 m 58 -14 l 58 313 l 78 313 b 417 1 128 165 228 1 b 631 199 550 1 631 79 b 72 778 631 463 72 375 b 381 1056 72 951 219 1056 b 592 975 465 1056 535 1028 l 706 1056 l 719 1056 l 719 743 l 700 743 b 392 1032 644 918 539 1032 b 219 872 279 1032 219 968 b 775 299 219 636 775 697 b 428 -21 775 104 624 -21 b 192 74 325 -21 250 17 l 72 -14 "},"ą":{"ha":808,"x_min":0,"x_max":0,"o":"m 457 358 l 457 424 b 325 628 457 531 429 628 b 200 589 267 628 222 607 b 325 504 261 603 325 569 b 208 404 325 442 264 404 b 101 501 146 404 101 444 b 363 650 101 590 222 650 b 651 424 592 650 651 550 l 651 79 b 703 29 651 50 669 29 b 790 94 728 29 763 43 l 804 88 b 626 -14 774 21 704 -12 b 582 -158 603 -40 582 -93 b 646 -278 582 -233 606 -278 b 726 -212 685 -278 708 -246 l 740 -219 b 568 -321 719 -258 688 -321 b 396 -201 476 -321 396 -285 b 575 -11 396 -111 485 -49 b 457 108 508 -1 457 33 l 457 135 b 240 -14 428 38 356 -14 b 53 157 131 -14 53 54 b 357 358 53 274 157 358 m 342 56 b 457 251 394 56 457 104 l 457 339 l 406 339 b 264 178 321 339 264 267 b 342 56 264 106 289 56 "},"˘":{"ha":417,"x_min":0,"x_max":0,"o":"m 61 1054 b 208 965 61 990 133 965 b 356 1054 283 965 356 990 l 375 1054 b 208 833 375 921 326 833 b 42 1054 90 833 42 921 l 61 1054 "},"˙":{"ha":325,"x_min":0,"x_max":0,"o":"m 63 964 b 169 1071 63 1024 110 1071 b 275 964 228 1071 275 1024 b 169 858 275 906 228 858 b 63 964 110 858 63 906 "},"Ł":{"ha":854,"x_min":0,"x_max":0,"o":"m 150 572 l 150 1022 l 25 1022 l 25 1042 l 489 1042 l 489 1022 l 364 1022 l 364 692 l 569 806 l 569 782 l 364 668 l 364 19 l 507 19 b 807 313 711 19 786 136 l 826 313 l 826 0 l 25 0 l 25 19 l 150 19 l 150 549 l 21 476 l 21 500 "},"‱":{"ha":2785,"x_min":0,"x_max":0,"o":"m 49 750 b 354 1056 49 949 197 1056 b 660 750 511 1056 660 949 b 354 444 660 551 483 444 b 49 750 197 444 49 551 m 1076 1042 l 364 0 l 340 0 l 1053 1042 m 264 750 b 354 464 264 569 286 464 b 444 750 422 464 444 569 b 354 1036 444 931 422 1036 b 264 750 286 1036 264 931 m 2125 292 b 2431 597 2125 490 2274 597 b 2736 292 2588 597 2736 490 b 2431 -14 2736 93 2560 -14 b 2125 292 2274 -14 2125 93 m 1438 292 b 1743 597 1438 490 1586 597 b 2049 292 1900 597 2049 490 b 1743 -14 2049 93 1872 -14 b 1438 292 1586 -14 1438 93 m 757 292 b 1063 597 757 490 906 597 b 1368 292 1219 597 1368 490 b 1063 -14 1368 93 1192 -14 b 757 292 906 -14 757 93 m 2340 292 b 2431 6 2340 111 2363 6 b 2521 292 2499 6 2521 111 b 2431 578 2521 472 2499 578 b 2340 292 2363 578 2340 472 m 1653 292 b 1743 6 1653 111 1675 6 b 1833 292 1811 6 1833 111 b 1743 578 1833 472 1811 578 b 1653 292 1675 578 1653 472 m 972 292 b 1063 6 972 111 994 6 b 1153 292 1131 6 1153 111 b 1063 578 1153 472 1131 578 b 972 292 994 578 972 472 "},"œ":{"ha":1240,"x_min":0,"x_max":0,"o":"m 46 319 b 385 653 46 500 175 653 b 642 544 494 653 582 611 b 904 653 701 615 794 653 b 1208 353 1111 653 1208 504 l 782 353 b 782 333 782 346 782 340 b 943 11 782 154 813 11 b 1192 199 1065 11 1157 92 l 1210 199 b 907 -14 1174 78 1075 -14 b 642 94 797 -14 703 24 b 385 -14 583 28 494 -14 b 46 319 175 -14 46 139 m 254 319 b 385 6 254 154 282 6 b 515 319 488 6 515 154 b 385 633 515 485 488 633 b 254 319 282 633 254 485 m 904 633 b 782 372 817 633 788 514 l 1001 372 b 904 633 1001 486 993 633 "},"ŝ":{"ha":619,"x_min":0,"x_max":0,"o":"m 128 706 l 118 715 l 285 903 l 403 903 l 569 715 l 560 706 l 343 806 m 54 -14 l 54 201 l 74 201 b 319 7 118 86 208 7 b 475 108 400 7 475 38 b 69 451 475 250 69 179 b 285 651 69 561 153 651 b 444 593 351 651 404 628 l 519 653 l 533 653 l 533 458 l 515 458 b 286 631 483 538 406 631 b 161 539 228 631 161 603 b 581 204 161 408 581 465 b 329 -14 581 60 457 -14 b 146 53 256 -14 193 11 l 69 -14 "},"Ď":{"ha":1051,"x_min":0,"x_max":0,"o":"m 719 1336 l 729 1326 l 563 1139 l 444 1139 l 278 1326 l 288 1336 l 503 1236 m 25 0 l 25 19 l 150 19 l 150 1022 l 25 1022 l 25 1042 l 469 1042 b 997 521 800 1042 997 831 b 469 0 997 211 786 0 m 364 1022 l 364 19 l 469 19 b 753 521 683 19 753 247 b 469 1022 753 794 669 1022 "},"ŉ":{"ha":1042,"x_min":0,"x_max":0,"o":"m 14 971 b 149 1094 14 1038 75 1094 b 288 908 224 1094 288 1031 b 11 647 288 769 178 647 l 11 667 b 264 942 153 667 274 761 b 133 847 242 885 190 847 b 14 971 61 847 14 904 m 307 19 l 307 619 l 213 619 l 213 639 l 501 639 l 501 444 b 729 653 525 553 588 653 b 926 443 881 653 926 564 l 926 19 l 1021 19 l 1021 0 l 657 0 l 657 19 l 732 19 l 732 433 b 654 597 732 550 713 597 b 501 310 553 597 501 446 l 501 19 l 576 19 l 576 0 l 213 0 l 213 19 "},"ń":{"ha":857,"x_min":0,"x_max":0,"o":"m 292 747 l 286 767 l 597 872 b 701 799 651 892 701 846 b 611 722 701 751 658 717 m 119 19 l 119 619 l 25 619 l 25 639 l 314 639 l 314 444 b 542 653 338 553 400 653 b 739 443 693 653 739 564 l 739 19 l 833 19 l 833 0 l 469 0 l 469 19 l 544 19 l 544 433 b 467 597 544 550 525 597 b 314 310 365 597 314 446 l 314 19 l 389 19 l 389 0 l 25 0 l 25 19 "},"Ŀ":{"ha":854,"x_min":0,"x_max":0,"o":"m 25 0 l 25 19 l 150 19 l 150 1022 l 25 1022 l 25 1042 l 489 1042 l 489 1022 l 364 1022 l 364 19 l 507 19 b 807 313 711 19 786 136 l 826 313 l 826 0 m 483 722 b 608 847 483 792 539 847 b 733 722 678 847 733 792 b 608 597 733 653 678 597 b 483 722 539 597 483 653 "},"¨":{"ha":632,"x_min":0,"x_max":0,"o":"m 365 1076 b 472 1182 365 1135 413 1182 b 578 1076 531 1182 578 1135 b 472 969 578 1017 531 969 b 365 1076 413 969 365 1017 m 67 1076 b 174 1182 67 1135 114 1182 b 279 1076 232 1182 279 1135 b 174 969 279 1017 232 969 b 67 1076 114 969 67 1017 "},"Ę":{"ha":871,"x_min":0,"x_max":0,"o":"m 581 365 b 414 529 560 458 493 529 l 364 529 l 364 19 l 511 19 b 811 313 701 19 790 136 l 831 313 l 831 0 l 686 0 b 628 -157 658 -18 628 -78 b 692 -276 628 -232 651 -276 b 772 -211 731 -276 754 -244 l 786 -218 b 614 -319 765 -257 733 -319 b 442 -200 522 -319 442 -283 b 644 0 442 -101 547 -35 l 25 0 l 25 19 l 150 19 l 150 1022 l 25 1022 l 25 1042 l 817 1042 l 817 757 l 797 757 b 525 1022 776 906 688 1022 l 364 1022 l 364 549 l 414 549 b 581 706 493 549 560 613 l 600 706 l 600 365 l 581 365 "},"ō":{"ha":769,"x_min":0,"x_max":0,"o":"m 583 758 l 583 739 l 192 739 l 192 758 m 46 319 b 385 653 46 500 175 653 b 724 319 594 653 724 500 b 385 -14 724 139 594 -14 b 46 319 175 -14 46 139 m 254 319 b 385 6 254 154 282 6 b 515 319 488 6 515 154 b 385 633 515 485 488 633 b 254 319 282 633 254 485 "},"š":{"ha":619,"x_min":0,"x_max":0,"o":"m 539 933 l 549 924 l 382 736 l 264 736 l 97 924 l 107 933 l 322 833 m 54 -14 l 54 201 l 74 201 b 319 7 118 86 208 7 b 475 108 400 7 475 38 b 69 451 475 250 69 179 b 285 651 69 561 153 651 b 444 593 351 651 404 628 l 519 653 l 533 653 l 533 458 l 515 458 b 286 631 483 538 406 631 b 161 539 228 631 161 603 b 581 204 161 408 581 465 b 329 -14 581 60 457 -14 b 146 53 256 -14 193 11 l 69 -14 "},"‽":{"ha":917,"x_min":0,"x_max":0,"o":"m 90 772 b 474 1056 90 900 228 1056 b 861 764 683 1056 861 951 b 486 465 861 589 664 474 b 457 338 469 418 457 374 l 438 338 b 358 721 438 435 374 588 b 357 747 357 731 357 739 b 461 851 357 786 382 851 b 565 747 540 851 565 786 b 564 721 565 739 565 731 b 493 483 556 643 521 560 b 679 778 596 513 679 651 b 442 1024 679 908 593 1024 b 132 835 250 1024 149 907 b 204 868 139 849 165 868 b 304 764 265 868 304 813 b 197 651 304 688 246 651 b 90 772 142 651 90 694 m 318 111 b 443 236 318 181 374 236 b 568 111 513 236 568 181 b 443 -14 568 42 513 -14 b 318 111 374 -14 318 42 "},"Ŗ":{"ha":1031,"x_min":0,"x_max":0,"o":"m 164 19 l 164 1022 l 25 1022 l 25 1042 l 511 1042 b 900 785 742 1042 900 965 b 589 535 900 624 786 550 b 939 19 1040 532 768 19 b 1011 36 968 19 992 28 l 1017 17 b 850 -11 994 4 931 -11 b 475 525 471 -11 817 525 l 378 525 l 378 19 l 517 19 l 517 0 l 25 0 l 25 19 m 378 1022 l 378 544 l 475 544 b 678 785 608 544 678 619 b 475 1022 678 950 608 1022 m 458 -196 b 593 -72 458 -129 519 -72 b 732 -258 668 -72 732 -136 b 456 -519 732 -397 622 -519 l 456 -500 b 708 -225 597 -500 718 -406 b 578 -319 686 -282 635 -319 b 458 -196 506 -319 458 -262 "},"ĸ":{"ha":913,"x_min":0,"x_max":0,"o":"m 149 19 l 149 619 l 24 619 l 24 639 l 343 639 l 343 397 l 654 619 l 494 619 l 494 639 l 804 639 l 804 619 l 686 619 l 468 458 l 804 19 l 872 19 l 872 0 l 481 0 l 481 19 l 565 19 l 343 317 l 343 19 l 419 19 l 419 0 l 24 0 l 24 19 "},"ś":{"ha":619,"x_min":0,"x_max":0,"o":"m 114 789 l 108 808 l 419 914 b 524 840 474 933 524 888 b 433 764 524 793 481 758 m 54 -14 l 54 201 l 74 201 b 319 7 118 86 208 7 b 475 108 400 7 475 38 b 69 451 475 250 69 179 b 285 651 69 561 153 651 b 444 593 351 651 404 628 l 519 653 l 533 653 l 533 458 l 515 458 b 286 631 483 538 406 631 b 161 539 228 631 161 603 b 581 204 161 408 581 465 b 329 -14 581 60 457 -14 b 146 53 256 -14 193 11 l 69 -14 "},"Ċ":{"ha":975,"x_min":0,"x_max":0,"o":"m 463 1269 b 569 1376 463 1329 510 1376 b 675 1269 628 1376 675 1329 b 569 1164 675 1211 628 1164 b 463 1269 510 1164 463 1211 m 919 0 l 906 0 l 797 76 b 558 -14 738 19 657 -14 b 58 521 249 -14 58 211 b 558 1056 58 831 249 1056 b 775 969 644 1056 718 1024 l 892 1042 l 906 1042 l 906 736 l 886 736 b 572 1028 831 910 722 1028 b 303 521 365 1028 303 774 b 572 14 303 268 365 14 b 900 306 756 14 846 144 l 919 306 "},"—":{"ha":735,"x_min":0,"x_max":0,"o":"m 651 392 l 651 372 l 82 372 l 82 392 "},"Ğ":{"ha":1051,"x_min":0,"x_max":0,"o":"m 433 1360 b 581 1271 433 1296 506 1271 b 728 1360 656 1271 728 1296 l 747 1360 b 581 1139 747 1226 699 1139 b 414 1360 463 1139 414 1226 l 433 1360 m 1039 406 l 1039 386 l 969 386 l 969 215 b 553 -14 879 121 779 -14 b 58 521 243 -14 58 197 b 572 1056 58 844 290 1056 b 793 978 651 1056 731 1026 l 919 1042 l 933 1042 l 933 736 l 914 736 b 592 1028 882 881 753 1028 b 303 521 385 1028 303 774 b 553 10 303 268 353 10 b 739 174 669 10 718 115 l 739 386 l 594 386 l 594 406 "},"Ņ":{"ha":1046,"x_min":0,"x_max":0,"o":"m 167 19 l 167 1022 l 25 1022 l 25 1042 l 419 1042 l 860 356 l 860 1022 l 706 1022 l 706 1042 l 1026 1042 l 1026 1022 l 881 1022 l 881 -14 l 849 -14 l 189 1003 l 189 19 l 347 19 l 347 0 l 25 0 l 25 19 m 406 -193 b 540 -69 406 -126 467 -69 b 679 -256 615 -69 679 -133 b 403 -517 679 -394 569 -517 l 403 -497 b 656 -222 544 -497 665 -403 b 525 -317 633 -279 582 -317 b 406 -193 453 -317 406 -260 "},"Ĝ":{"ha":1051,"x_min":0,"x_max":0,"o":"m 364 1143 l 354 1153 l 521 1340 l 639 1340 l 806 1153 l 796 1143 l 579 1243 m 1039 406 l 1039 386 l 969 386 l 969 215 b 553 -14 879 121 779 -14 b 58 521 243 -14 58 197 b 572 1056 58 844 290 1056 b 793 978 651 1056 731 1026 l 919 1042 l 933 1042 l 933 736 l 914 736 b 592 1028 882 881 753 1028 b 303 521 385 1028 303 774 b 553 10 303 268 353 10 b 739 174 669 10 718 115 l 739 386 l 594 386 l 594 406 "},"Ș":{"ha":829,"x_min":0,"x_max":0,"o":"m 58 -14 l 58 313 l 78 313 b 417 1 128 165 228 1 b 631 199 550 1 631 79 b 72 778 631 463 72 375 b 381 1056 72 951 219 1056 b 592 975 465 1056 535 1028 l 706 1056 l 719 1056 l 719 743 l 700 743 b 392 1032 644 918 539 1032 b 219 872 279 1032 219 968 b 775 299 219 636 775 697 b 428 -21 775 104 624 -21 b 192 74 325 -21 250 17 l 72 -14 m 300 -228 b 435 -104 300 -161 361 -104 b 574 -290 510 -104 574 -168 b 297 -551 574 -429 464 -551 l 297 -532 b 550 -257 439 -532 560 -437 b 419 -351 528 -314 476 -351 b 300 -228 347 -351 300 -294 "},"Ķ":{"ha":1065,"x_min":0,"x_max":0,"o":"m 150 19 l 150 1022 l 25 1022 l 25 1042 l 503 1042 l 503 1022 l 364 1022 l 364 493 l 817 1022 l 664 1022 l 664 1042 l 997 1042 l 997 1022 l 846 1022 l 550 678 l 939 19 l 1058 19 l 1058 0 l 558 0 l 558 19 l 689 19 l 410 513 l 364 458 l 364 19 l 489 19 l 489 0 l 25 0 l 25 19 m 414 -207 b 549 -83 414 -140 475 -83 b 688 -269 624 -83 688 -147 b 411 -531 688 -408 578 -531 l 411 -511 b 664 -236 553 -511 674 -417 b 533 -331 642 -293 590 -331 b 414 -207 461 -331 414 -274 "},"Č":{"ha":975,"x_min":0,"x_max":0,"o":"m 782 1336 l 792 1326 l 625 1139 l 507 1139 l 340 1326 l 350 1336 l 565 1236 m 919 0 l 906 0 l 797 76 b 558 -14 738 19 657 -14 b 58 521 249 -14 58 211 b 558 1056 58 831 249 1056 b 775 969 644 1056 718 1024 l 892 1042 l 906 1042 l 906 736 l 886 736 b 572 1028 831 910 722 1028 b 303 521 365 1028 303 774 b 572 14 303 268 365 14 b 900 306 756 14 846 144 l 919 306 "},"€":{"ha":1007,"x_min":0,"x_max":0,"o":"m 161 413 b 153 521 156 447 153 483 b 157 601 153 549 154 575 l 42 601 l 42 621 l 160 621 b 638 1056 197 867 372 1056 b 944 842 828 1056 944 935 b 831 721 944 764 893 721 b 717 833 775 721 717 757 b 831 944 717 903 769 944 b 889 921 858 944 881 931 b 665 1032 861 968 781 1032 b 406 621 490 1032 421 847 l 653 621 l 653 601 l 404 601 b 403 521 403 575 403 549 b 407 413 403 483 404 447 l 653 413 l 653 393 l 408 393 b 639 17 428 165 504 17 b 907 247 774 17 872 125 l 928 247 b 601 -14 892 113 783 -14 b 164 393 392 -14 211 146 l 42 393 l 42 413 "},"ŕ":{"ha":661,"x_min":0,"x_max":0,"o":"m 133 775 l 128 794 l 439 900 b 543 826 493 919 543 874 b 453 750 543 779 500 744 m 119 19 l 119 619 l 25 619 l 25 639 l 314 639 l 314 478 b 494 653 335 578 383 653 b 650 506 572 653 650 594 b 536 386 650 442 610 386 b 419 497 469 386 419 428 b 581 586 419 583 514 626 b 492 632 564 617 528 632 b 314 310 347 632 314 454 l 314 19 l 408 19 l 408 0 l 25 0 l 25 19 "},"":{"ha":901,"x_min":0,"x_max":0,"o":"m 461 683 l 461 1044 l 422 1044 l 422 1051 l 540 1051 l 639 783 l 731 1051 l 847 1051 l 847 1044 l 813 1044 l 813 683 l 847 683 l 847 676 l 694 676 l 694 683 l 735 683 l 735 1040 l 608 671 l 601 671 l 468 1035 l 468 683 l 504 683 l 504 676 l 425 676 l 425 683 m 179 683 l 179 1044 l 147 1044 b 65 932 94 1044 72 994 l 57 932 l 57 1051 l 379 1051 l 379 932 l 372 932 b 290 1044 365 994 343 1044 l 257 1044 l 257 683 l 313 683 l 313 676 l 125 676 l 125 683 "},"ž":{"ha":661,"x_min":0,"x_max":0,"o":"m 558 933 l 568 924 l 401 736 l 283 736 l 117 924 l 126 933 l 342 833 m 283 619 b 76 400 153 619 97 540 l 57 400 l 57 639 l 614 639 l 614 619 l 238 19 l 378 19 b 618 256 540 19 597 83 l 636 256 l 636 0 l 18 0 l 18 19 l 393 619 l 283 619 "},"ă":{"ha":808,"x_min":0,"x_max":0,"o":"m 236 971 b 383 882 236 907 308 882 b 531 971 458 882 531 907 l 550 971 b 383 750 550 838 501 750 b 217 971 265 750 217 838 l 236 971 m 457 358 l 457 424 b 325 628 457 531 429 628 b 200 589 267 628 222 607 b 325 504 261 603 325 569 b 208 404 325 442 264 404 b 101 501 146 404 101 444 b 363 650 101 590 222 650 b 651 424 592 650 651 550 l 651 79 b 703 29 651 50 669 29 b 790 94 728 29 763 43 l 804 88 b 619 -14 772 18 700 -14 b 457 108 533 -14 457 17 l 457 135 b 240 -14 428 38 356 -14 b 53 157 131 -14 53 54 b 357 358 53 274 157 358 m 342 56 b 457 251 394 56 457 104 l 457 339 l 406 339 b 264 178 321 339 264 267 b 342 56 264 106 289 56 "},"²":{"ha":653,"x_min":0,"x_max":0,"o":"m 139 635 l 139 718 l 315 861 b 425 1076 385 919 425 986 b 303 1239 425 1179 381 1239 b 163 1096 224 1239 164 1176 b 228 1144 172 1124 196 1144 b 304 1074 271 1144 304 1115 b 222 996 304 1028 264 996 b 147 1092 181 996 147 1028 b 356 1268 147 1190 225 1268 b 558 1110 486 1268 558 1197 b 415 921 558 1014 478 968 l 221 760 l 565 760 l 565 822 l 576 822 l 576 635 "},"ļ":{"ha":489,"x_min":0,"x_max":0,"o":"m 147 19 l 147 1022 l 25 1022 l 25 1042 l 342 1042 l 342 19 l 464 19 l 464 0 l 25 0 l 25 19 m 118 -207 b 253 -83 118 -140 179 -83 b 392 -269 328 -83 392 -147 b 115 -531 392 -408 282 -531 l 115 -511 b 368 -236 257 -511 378 -417 b 238 -331 346 -293 294 -331 b 118 -207 165 -331 118 -274 "},"Ȓ":{"ha":1031,"x_min":0,"x_max":0,"o":"m 344 1139 b 511 1360 344 1272 393 1360 b 678 1139 629 1360 678 1272 l 658 1139 b 511 1228 658 1203 586 1228 b 364 1139 436 1228 364 1203 m 164 19 l 164 1022 l 25 1022 l 25 1042 l 511 1042 b 900 785 742 1042 900 965 b 589 535 900 624 786 550 b 939 19 1040 532 768 19 b 1011 36 968 19 992 28 l 1017 17 b 850 -11 994 4 931 -11 b 475 525 471 -11 817 525 l 378 525 l 378 19 l 517 19 l 517 0 l 25 0 l 25 19 m 378 1022 l 378 544 l 475 544 b 678 785 608 544 678 619 b 475 1022 678 950 608 1022 "},"ř":{"ha":661,"x_min":0,"x_max":0,"o":"m 551 926 l 561 917 l 394 729 l 276 729 l 110 917 l 119 926 l 335 826 m 119 19 l 119 619 l 25 619 l 25 639 l 314 639 l 314 478 b 494 653 335 578 383 653 b 650 506 572 653 650 594 b 536 386 650 442 610 386 b 419 497 469 386 419 428 b 581 586 419 583 514 626 b 492 632 564 617 528 632 b 314 310 347 632 314 454 l 314 19 l 408 19 l 408 0 l 25 0 l 25 19 "},"Ŵ":{"ha":1531,"x_min":0,"x_max":0,"o":"m 558 1143 l 549 1153 l 715 1340 l 833 1340 l 1000 1153 l 990 1143 l 774 1243 m 1057 1022 l 928 674 l 1083 239 l 1369 1022 l 1239 1022 l 1239 1042 l 1517 1042 l 1517 1022 l 1393 1022 l 1014 -14 l 956 -14 l 774 489 l 589 -14 l 511 -14 l 135 1022 l 17 1022 l 17 1042 l 1178 1042 l 1178 1022 m 761 519 l 579 1022 l 379 1022 l 658 239 m 917 706 l 1035 1022 l 803 1022 "},"":{"ha":806,"x_min":0,"x_max":0,"o":"m 75 785 b 396 1106 75 963 218 1106 b 717 785 574 1106 717 963 b 396 464 717 607 574 464 b 75 785 218 464 75 607 m 86 785 b 396 475 86 614 225 475 b 706 785 567 475 706 614 b 396 1094 706 956 567 1094 b 86 785 225 1094 86 956 m 533 597 l 528 597 l 489 625 b 403 592 467 604 439 592 b 222 785 292 592 222 674 b 403 978 222 896 292 978 b 481 946 433 978 460 965 l 522 972 l 528 972 l 528 863 l 521 863 b 408 967 500 925 461 967 b 311 785 333 967 311 876 b 408 603 311 693 333 603 b 525 707 474 603 506 649 l 533 707 "},"Ĕ":{"ha":871,"x_min":0,"x_max":0,"o":"m 281 1360 b 428 1271 281 1296 353 1271 b 575 1360 503 1271 575 1296 l 594 1360 b 428 1139 594 1226 546 1139 b 261 1360 310 1139 261 1226 l 281 1360 m 581 365 b 414 529 560 458 493 529 l 364 529 l 364 19 l 511 19 b 811 313 701 19 790 136 l 831 313 l 831 0 l 25 0 l 25 19 l 150 19 l 150 1022 l 25 1022 l 25 1042 l 817 1042 l 817 757 l 797 757 b 525 1022 776 906 688 1022 l 364 1022 l 364 549 l 414 549 b 581 706 493 549 560 613 l 600 706 l 600 365 l 581 365 "},"”":{"ha":729,"x_min":0,"x_max":0,"o":"m 56 946 b 190 1069 56 1013 117 1069 b 329 883 265 1069 329 1006 b 53 622 329 744 219 622 l 53 642 b 306 917 194 642 315 736 b 175 822 283 860 232 822 b 56 946 103 822 56 879 m 403 946 b 538 1069 403 1013 464 1069 b 676 883 613 1069 676 1006 b 400 622 676 744 567 622 l 400 642 b 653 917 542 642 663 736 b 522 822 631 860 579 822 b 403 946 450 822 403 879 "},"Ā":{"ha":1086,"x_min":0,"x_max":0,"o":"m 753 1169 l 753 1150 l 361 1150 l 361 1169 m 146 19 l 514 1063 l 600 1063 l 963 19 l 1067 19 l 1067 0 l 594 0 l 594 19 l 713 19 l 613 331 l 276 331 l 168 19 l 331 19 l 331 0 l 25 0 l 25 19 m 283 350 l 606 350 l 450 828 "},"―":{"ha":794,"x_min":0,"x_max":0,"o":"m 711 392 l 711 372 l 83 372 l 83 392 "},"Ů":{"ha":1003,"x_min":0,"x_max":0,"o":"m 372 1264 b 511 1389 372 1335 426 1389 b 650 1264 596 1389 650 1335 b 511 1139 650 1193 596 1139 b 372 1264 426 1139 372 1193 m 456 1264 b 511 1158 456 1196 471 1158 b 567 1264 551 1158 567 1196 b 511 1369 567 1332 551 1369 b 456 1264 471 1369 456 1332 m 503 1042 l 503 1022 l 364 1022 l 364 333 b 578 11 364 150 399 11 b 833 319 725 11 833 103 l 833 1022 l 711 1022 l 711 1042 l 983 1042 l 983 1022 l 853 1022 l 853 319 b 525 -21 853 90 751 -21 b 150 319 264 -21 150 79 l 150 1022 l 25 1022 l 25 1042 "},"Į":{"ha":579,"x_min":0,"x_max":0,"o":"m 178 19 l 178 1022 l 25 1022 l 25 1042 l 558 1042 l 558 1022 l 392 1022 l 392 19 l 558 19 l 558 0 l 290 0 b 233 -156 263 -19 233 -79 b 297 -275 233 -231 257 -275 b 378 -210 336 -275 360 -243 l 392 -217 b 219 -318 371 -256 339 -318 b 47 -199 128 -318 47 -282 b 247 0 47 -101 150 -36 l 25 0 l 25 19 "},"ł":{"ha":489,"x_min":0,"x_max":0,"o":"m 147 19 l 147 581 l 18 503 l 18 528 l 147 606 l 147 1022 l 25 1022 l 25 1042 l 342 1042 l 342 721 l 483 806 l 483 781 l 342 696 l 342 19 l 464 19 l 464 0 l 25 0 l 25 19 "},"Ź":{"ha":857,"x_min":0,"x_max":0,"o":"m 260 1150 l 254 1169 l 565 1275 b 669 1201 619 1294 669 1249 b 579 1125 669 1154 626 1119 m 794 1042 l 794 1022 l 261 19 l 517 19 b 789 285 707 19 761 108 l 808 285 l 808 0 l 17 0 l 17 19 l 553 1022 l 336 1022 b 64 785 146 1022 92 933 l 44 785 l 44 1042 "},"ĩ":{"ha":444,"x_min":0,"x_max":0,"o":"m 68 846 b -11 764 24 846 -11 815 l -31 764 b 107 968 -31 882 18 968 b 354 858 218 968 267 858 b 433 940 401 858 433 889 l 453 940 b 329 736 453 808 432 736 b 68 846 222 736 165 846 m 125 19 l 125 619 l 28 619 l 28 639 l 319 639 l 319 19 l 417 19 l 417 0 l 28 0 l 28 19 "},"ﬃ":{"ha":1292,"x_min":0,"x_max":0,"o":"m 142 19 l 142 619 l 17 619 l 17 639 l 142 639 l 142 642 b 500 986 142 836 292 986 b 643 939 557 986 607 967 b 947 1056 708 1013 813 1056 b 1174 890 1094 1056 1174 976 b 1067 776 1174 819 1129 776 b 954 879 1011 776 954 811 b 1063 986 954 949 1001 986 b 1119 957 1094 986 1114 971 b 947 1036 1106 996 1050 1036 b 750 750 799 1036 750 926 l 750 639 l 1169 639 l 1169 19 l 1267 19 l 1267 0 l 17 0 l 17 19 m 563 711 b 486 811 521 724 486 757 b 592 917 486 881 531 917 b 622 911 603 917 614 914 b 628 921 624 914 626 918 b 506 965 604 944 560 965 b 331 681 399 965 331 857 l 331 639 l 563 639 l 563 711 m 563 19 l 563 619 l 331 619 l 331 19 m 750 619 l 750 19 l 975 19 l 975 619 "},"№":{"ha":1592,"x_min":0,"x_max":0,"o":"m 1042 792 b 1297 1056 1042 965 1150 1056 b 1553 792 1444 1056 1553 965 b 1297 528 1553 618 1444 528 b 1042 792 1150 528 1042 618 m 167 19 l 167 1022 l 25 1022 l 25 1042 l 419 1042 l 860 356 l 860 1022 l 706 1022 l 706 1042 l 1026 1042 l 1026 1022 l 881 1022 l 881 -14 l 849 -14 l 189 1003 l 189 19 l 347 19 l 347 0 l 25 0 l 25 19 m 1201 792 b 1297 547 1201 633 1229 547 b 1393 792 1365 547 1393 633 b 1297 1036 1393 950 1365 1036 b 1201 792 1229 1036 1201 950 m 1464 447 l 1464 428 l 1131 428 l 1131 447 "},"¸":{"ha":764,"x_min":0,"x_max":0,"o":"m 429 -194 b 301 -110 429 -121 371 -110 l 426 57 l 453 57 l 369 -54 b 583 -167 494 -58 583 -89 b 307 -301 583 -236 517 -301 l 307 -282 b 429 -194 389 -282 429 -244 "},"Ţ":{"ha":940,"x_min":0,"x_max":0,"o":"m 364 19 l 364 1022 l 275 1022 b 44 708 126 1022 65 885 l 25 708 l 25 1042 l 919 1042 l 919 708 l 900 708 b 669 1022 879 885 818 1022 l 581 1022 l 581 19 l 733 19 l 733 0 l 485 0 l 425 -79 b 639 -192 550 -83 639 -114 b 363 -326 639 -261 572 -326 l 363 -307 b 485 -219 444 -307 485 -269 b 357 -135 485 -146 426 -135 l 458 0 l 211 0 l 211 19 "},"Ĭ":{"ha":579,"x_min":0,"x_max":0,"o":"m 144 1374 b 292 1285 144 1310 217 1285 b 439 1374 367 1285 439 1310 l 458 1374 b 292 1153 458 1240 410 1153 b 125 1374 174 1153 125 1240 l 144 1374 m 178 19 l 178 1022 l 25 1022 l 25 1042 l 558 1042 l 558 1022 l 392 1022 l 392 19 l 558 19 l 558 0 l 25 0 l 25 19 "},"ī":{"ha":444,"x_min":0,"x_max":0,"o":"m 369 760 l 369 740 l -22 740 l -22 760 m 125 19 l 125 619 l 28 619 l 28 639 l 319 639 l 319 19 l 417 19 l 417 0 l 28 0 l 28 19 "},"¹":{"ha":736,"x_min":0,"x_max":0,"o":"m 299 644 l 299 1247 l 204 1247 l 204 1258 l 428 1258 l 428 644 l 519 644 l 519 633 l 190 633 l 190 644 "},"ĕ":{"ha":731,"x_min":0,"x_max":0,"o":"m 242 957 b 389 868 242 893 314 868 b 536 957 464 868 536 893 l 556 957 b 389 736 556 824 507 736 b 222 957 271 736 222 824 l 242 957 m 689 199 b 386 -14 653 78 554 -14 b 46 319 190 -14 46 104 b 383 653 46 535 188 653 b 688 353 590 653 688 504 l 261 353 b 261 333 261 346 261 340 b 422 11 261 154 292 11 b 671 199 544 11 636 92 l 689 199 m 383 633 b 261 372 296 633 267 514 l 481 372 b 383 633 481 486 472 633 "},"“":{"ha":729,"x_min":0,"x_max":0,"o":"m 674 757 b 539 633 674 690 613 633 b 400 819 464 633 400 697 b 676 1081 400 958 510 1081 l 676 1061 b 424 786 535 1061 414 967 b 554 881 446 843 497 881 b 674 757 626 881 674 824 m 326 757 b 192 633 326 690 265 633 b 53 819 117 633 53 697 b 329 1081 53 958 163 1081 l 329 1061 b 76 786 188 1061 67 967 b 207 881 99 843 150 881 b 326 757 279 881 326 824 "},"ň":{"ha":857,"x_min":0,"x_max":0,"o":"m 689 926 l 699 917 l 532 729 l 414 729 l 247 917 l 257 926 l 472 826 m 119 19 l 119 619 l 25 619 l 25 639 l 314 639 l 314 444 b 542 653 338 553 400 653 b 739 443 693 653 739 564 l 739 19 l 833 19 l 833 0 l 469 0 l 469 19 l 544 19 l 544 433 b 467 597 544 550 525 597 b 314 310 365 597 314 446 l 314 19 l 389 19 l 389 0 l 25 0 l 25 19 "},"ų":{"ha":857,"x_min":0,"x_max":0,"o":"m 314 206 b 392 42 314 89 333 42 b 544 329 493 42 544 193 l 544 619 l 453 619 l 453 639 l 739 639 l 739 19 l 833 19 l 833 0 l 703 0 b 653 -150 678 -24 653 -79 b 717 -269 653 -225 676 -269 b 797 -204 756 -269 779 -237 l 811 -211 b 639 -312 790 -250 758 -312 b 467 -193 547 -312 467 -276 b 651 0 467 -101 560 -36 l 544 0 l 544 194 b 317 -14 521 86 458 -14 b 119 196 165 -14 119 75 l 119 619 l 25 619 l 25 639 l 314 639 "},"Ō":{"ha":1058,"x_min":0,"x_max":0,"o":"m 711 1161 l 711 1142 l 319 1142 l 319 1161 m 531 -14 b 58 521 235 -14 58 218 b 531 1056 58 824 249 1056 b 1003 521 813 1056 1003 824 b 531 -14 1003 218 826 -14 m 531 1039 b 303 521 351 1039 303 808 b 531 3 303 233 338 3 b 761 521 724 3 761 233 b 531 1039 761 808 710 1039 "},"Ŭ":{"ha":1003,"x_min":0,"x_max":0,"o":"m 356 1374 b 503 1285 356 1310 428 1285 b 650 1374 578 1285 650 1310 l 669 1374 b 503 1153 669 1240 621 1153 b 336 1374 385 1153 336 1240 l 356 1374 m 503 1042 l 503 1022 l 364 1022 l 364 333 b 578 11 364 150 399 11 b 833 319 725 11 833 103 l 833 1022 l 711 1022 l 711 1042 l 983 1042 l 983 1022 l 853 1022 l 853 319 b 525 -21 853 90 751 -21 b 150 319 264 -21 150 79 l 150 1022 l 25 1022 l 25 1042 "},"Ē":{"ha":871,"x_min":0,"x_max":0,"o":"m 621 1163 l 621 1143 l 229 1143 l 229 1163 m 581 365 b 414 529 560 458 493 529 l 364 529 l 364 19 l 511 19 b 811 313 701 19 790 136 l 831 313 l 831 0 l 25 0 l 25 19 l 150 19 l 150 1022 l 25 1022 l 25 1042 l 817 1042 l 817 757 l 797 757 b 525 1022 776 906 688 1022 l 364 1022 l 364 549 l 414 549 b 581 706 493 549 560 613 l 600 706 l 600 365 l 581 365 "},"ş":{"ha":619,"x_min":0,"x_max":0,"o":"m 54 -14 l 54 201 l 74 201 b 319 7 118 86 208 7 b 475 108 400 7 475 38 b 69 451 475 250 69 179 b 285 651 69 561 153 651 b 444 593 351 651 404 628 l 519 653 l 533 653 l 533 458 l 515 458 b 286 631 483 538 406 631 b 161 539 228 631 161 603 b 581 204 161 408 581 465 b 329 -14 581 60 457 -14 b 319 -14 326 -14 324 -14 l 250 -107 b 464 -219 375 -111 464 -142 b 188 -354 464 -289 397 -354 l 188 -335 b 310 -247 269 -335 310 -297 b 182 -162 310 -174 251 -162 l 294 -12 b 146 53 236 -6 186 18 l 69 -14 "},"ĥ":{"ha":857,"x_min":0,"x_max":0,"o":"m 118 1129 l 108 1139 l 275 1326 l 393 1326 l 560 1139 l 550 1129 l 333 1229 m 119 19 l 119 1022 l 25 1022 l 25 1042 l 314 1042 l 314 449 b 542 653 338 556 399 653 b 739 443 697 653 739 564 l 739 19 l 833 19 l 833 0 l 469 0 l 469 19 l 544 19 l 544 433 b 467 597 544 550 525 597 b 314 310 360 597 314 446 l 314 19 l 389 19 l 389 0 l 25 0 l 25 19 "},"Ũ":{"ha":1003,"x_min":0,"x_max":0,"o":"m 368 1249 b 289 1167 324 1249 289 1218 l 269 1167 b 407 1371 269 1285 318 1371 b 654 1261 518 1371 567 1261 b 733 1343 701 1261 733 1292 l 753 1343 b 629 1139 753 1211 732 1139 b 368 1249 522 1139 465 1249 m 503 1042 l 503 1022 l 364 1022 l 364 333 b 578 11 364 150 399 11 b 833 319 725 11 833 103 l 833 1022 l 711 1022 l 711 1042 l 983 1042 l 983 1022 l 853 1022 l 853 319 b 525 -21 853 90 751 -21 b 150 319 264 -21 150 79 l 150 1022 l 25 1022 l 25 1042 "},"ĵ":{"ha":444,"x_min":0,"x_max":0,"o":"m -1 706 l -11 715 l 156 903 l 274 903 l 440 715 l 431 706 l 214 806 m 343 -17 b 42 -361 343 -199 236 -361 b -171 -197 -85 -361 -171 -289 b -57 -82 -171 -126 -118 -82 b 56 -185 -1 -82 56 -115 b -65 -290 56 -253 8 -290 b -110 -261 -90 -290 -107 -275 b 26 -339 -104 -294 -51 -339 b 147 28 172 -339 147 -149 l 149 619 l 24 619 l 24 639 l 343 639 "},"ċ":{"ha":718,"x_min":0,"x_max":0,"o":"m 301 867 b 408 974 301 926 349 974 b 514 867 467 974 514 926 b 408 761 514 808 467 761 b 301 867 349 761 301 808 m 592 547 b 422 631 572 589 501 631 b 275 319 292 631 275 450 b 428 15 275 161 307 15 b 640 199 533 15 604 90 l 661 199 b 390 -14 625 78 544 -14 b 46 319 188 -14 46 97 b 399 653 46 514 168 653 b 661 464 547 653 661 571 b 550 353 661 393 613 353 b 436 461 494 353 436 381 b 539 567 436 531 492 567 b 592 547 567 567 583 556 "},"‐":{"ha":500,"x_min":0,"x_max":0,"o":"m 417 392 l 417 372 l 83 372 l 83 392 "},"ğ":{"ha":863,"x_min":0,"x_max":0,"o":"m 258 957 b 406 868 258 893 331 868 b 553 957 481 868 553 893 l 572 957 b 406 736 572 824 524 736 b 239 957 288 736 239 824 l 258 957 m 69 97 b 257 232 69 178 158 218 b 60 438 153 254 60 318 b 343 653 60 590 210 653 b 568 576 425 653 513 629 b 711 646 608 628 664 646 b 844 531 803 646 844 583 b 757 429 844 454 799 429 b 669 517 715 429 669 457 b 753 599 669 563 703 599 b 806 575 779 599 800 586 b 711 626 794 606 761 626 b 582 561 668 626 618 610 b 626 438 610 529 626 489 b 343 224 626 285 476 224 b 303 225 329 224 317 224 b 192 161 249 217 192 197 b 333 117 192 119 257 117 b 453 118 382 117 414 118 b 685 -114 557 118 685 75 b 358 -361 685 -282 546 -361 b 25 -183 194 -361 25 -312 b 194 -33 25 -82 124 -44 b 69 97 122 -15 69 25 m 261 438 b 343 243 261 321 268 243 b 425 438 397 243 425 321 b 343 633 425 554 397 633 b 261 438 289 633 261 554 m 192 -147 b 372 -339 192 -256 253 -339 b 617 -171 494 -339 617 -294 b 456 -47 617 -90 546 -47 l 311 -47 b 232 -42 283 -47 257 -46 b 192 -147 197 -71 192 -121 "},"Ń":{"ha":1046,"x_min":0,"x_max":0,"o":"m 403 1150 l 397 1169 l 708 1275 b 813 1201 763 1294 813 1249 b 722 1125 813 1154 769 1119 m 167 19 l 167 1022 l 25 1022 l 25 1042 l 419 1042 l 860 356 l 860 1022 l 706 1022 l 706 1042 l 1026 1042 l 1026 1022 l 881 1022 l 881 -14 l 849 -14 l 189 1003 l 189 19 l 347 19 l 347 0 l 25 0 l 25 19 "},"Đ":{"ha":1051,"x_min":0,"x_max":0,"o":"m 25 0 l 25 19 l 150 19 l 150 497 l 25 497 l 25 517 l 150 517 l 150 1022 l 25 1022 l 25 1042 l 469 1042 b 997 521 800 1042 997 831 b 469 0 997 211 786 0 m 364 497 l 364 19 l 469 19 b 753 521 683 19 753 247 b 469 1022 753 794 669 1022 l 364 1022 l 364 517 l 507 517 l 507 497 "},"":{"ha":889,"x_min":0,"x_max":0,"o":"m 117 785 b 438 1106 117 963 260 1106 b 758 785 615 1106 758 963 b 438 464 758 607 615 464 b 117 785 260 464 117 607 m 128 785 b 438 475 128 614 267 475 b 747 785 608 475 747 614 b 438 1094 747 956 608 1094 b 128 785 267 1094 128 956 m 319 603 l 319 964 l 269 964 l 269 971 l 444 971 b 585 878 528 971 585 943 b 472 788 585 821 543 793 b 599 603 636 788 538 603 b 625 608 610 603 618 606 l 626 601 b 567 592 619 597 596 592 b 432 785 431 592 554 785 l 397 785 l 397 603 l 447 603 l 447 596 l 269 596 l 269 603 m 397 964 l 397 792 l 432 792 b 504 878 479 792 504 818 b 432 964 504 938 479 964 "},"Ļ":{"ha":854,"x_min":0,"x_max":0,"o":"m 25 0 l 25 19 l 150 19 l 150 1022 l 25 1022 l 25 1042 l 489 1042 l 489 1022 l 364 1022 l 364 19 l 507 19 b 807 313 711 19 786 136 l 826 313 l 826 0 m 297 -207 b 432 -83 297 -140 358 -83 b 571 -269 507 -83 571 -147 b 294 -531 571 -408 461 -531 l 294 -511 b 547 -236 436 -511 557 -417 b 417 -331 525 -293 474 -331 b 297 -207 344 -331 297 -274 "},"ď":{"ha":976,"x_min":0,"x_max":0,"o":"m 819 1001 b 954 1125 819 1068 881 1125 b 1093 939 1029 1125 1093 1061 b 817 678 1093 800 983 678 l 817 697 b 1069 972 958 697 1079 792 b 939 878 1047 915 996 878 b 819 1001 867 878 819 935 m 847 0 l 557 0 l 557 178 b 340 -14 526 54 453 -14 b 46 319 189 -14 46 111 b 340 651 46 528 189 651 b 557 461 453 651 526 583 l 557 1022 l 463 1022 l 463 1042 l 751 1042 l 751 19 l 847 19 m 557 319 b 389 617 557 525 467 617 b 268 319 307 617 268 524 b 393 25 268 115 311 25 b 557 319 471 25 557 114 "},"˚":{"ha":444,"x_min":0,"x_max":0,"o":"m 83 944 b 222 1069 83 1015 138 1069 b 361 944 307 1069 361 1015 b 222 819 361 874 307 819 b 83 944 138 819 83 874 m 167 944 b 222 839 167 876 182 839 b 278 944 263 839 278 876 b 222 1050 278 1013 263 1050 b 167 944 182 1050 167 1013 "},"Ĥ":{"ha":1100,"x_min":0,"x_max":0,"o":"m 343 1143 l 333 1153 l 500 1340 l 618 1340 l 785 1153 l 775 1143 l 558 1243 m 150 19 l 150 1022 l 25 1022 l 25 1042 l 489 1042 l 489 1022 l 364 1022 l 364 524 l 739 524 l 739 1022 l 614 1022 l 614 1042 l 1081 1042 l 1081 1022 l 956 1022 l 956 19 l 1081 19 l 1081 0 l 614 0 l 614 19 l 739 19 l 739 504 l 364 504 l 364 19 l 489 19 l 489 0 l 25 0 l 25 19 "},"³":{"ha":625,"x_min":0,"x_max":0,"o":"m 533 806 b 304 626 533 693 429 626 b 111 769 172 626 111 700 b 183 846 111 815 142 846 b 250 776 221 846 250 819 b 179 710 250 738 217 710 b 138 728 158 710 144 719 b 282 644 151 688 200 644 b 399 806 372 644 399 715 b 256 967 399 879 375 967 l 256 978 b 374 1128 367 978 374 1069 b 290 1250 374 1193 347 1250 b 175 1192 238 1250 192 1221 b 208 1204 183 1200 196 1204 b 272 1140 242 1204 272 1179 b 204 1071 272 1096 238 1071 b 136 1139 167 1071 136 1094 b 308 1267 136 1211 222 1267 b 508 1124 417 1267 508 1215 b 322 972 508 1050 468 988 b 533 806 479 958 533 890 "},"ā":{"ha":808,"x_min":0,"x_max":0,"o":"m 583 760 l 583 740 l 192 740 l 192 760 m 457 358 l 457 424 b 325 628 457 531 429 628 b 200 589 267 628 222 607 b 325 504 261 603 325 569 b 208 404 325 442 264 404 b 101 501 146 404 101 444 b 363 650 101 590 222 650 b 651 424 592 650 651 550 l 651 79 b 703 29 651 50 669 29 b 790 94 728 29 763 43 l 804 88 b 619 -14 772 18 700 -14 b 457 108 533 -14 457 17 l 457 135 b 240 -14 428 38 356 -14 b 53 157 131 -14 53 54 b 357 358 53 274 157 358 m 342 56 b 457 251 394 56 457 104 l 457 339 l 406 339 b 264 178 321 339 264 267 b 342 56 264 106 289 56 "},"ė":{"ha":731,"x_min":0,"x_max":0,"o":"m 290 842 b 397 949 290 901 338 949 b 503 842 456 949 503 901 b 397 736 503 783 456 736 b 290 842 338 736 290 783 m 689 199 b 386 -14 653 78 554 -14 b 46 319 190 -14 46 104 b 383 653 46 535 188 653 b 688 353 590 653 688 504 l 261 353 b 261 333 261 346 261 340 b 422 11 261 154 292 11 b 671 199 544 11 636 92 l 689 199 m 383 633 b 261 372 296 633 267 514 l 481 372 b 383 633 481 486 472 633 "},"Ŷ":{"ha":1024,"x_min":0,"x_max":0,"o":"m 304 1143 l 294 1153 l 461 1340 l 579 1340 l 746 1153 l 736 1143 l 519 1243 m 419 19 l 419 500 l 114 1022 l 17 1022 l 17 1042 l 503 1042 l 503 1022 l 364 1022 l 625 558 l 876 1022 l 719 1022 l 719 1042 l 1011 1042 l 1011 1022 l 900 1022 l 636 532 l 636 19 l 775 19 l 775 0 l 294 0 l 294 19 "},"ĉ":{"ha":718,"x_min":0,"x_max":0,"o":"m 190 706 l 181 715 l 347 903 l 465 903 l 632 715 l 622 706 l 406 806 m 592 547 b 422 631 572 589 501 631 b 275 319 292 631 275 450 b 428 15 275 161 307 15 b 640 199 533 15 604 90 l 661 199 b 390 -14 625 78 544 -14 b 46 319 188 -14 46 97 b 399 653 46 514 168 653 b 661 464 547 653 661 571 b 550 353 661 393 613 353 b 436 461 494 353 436 381 b 539 567 436 531 492 567 b 592 547 567 567 583 556 "},"ź":{"ha":661,"x_min":0,"x_max":0,"o":"m 189 747 l 183 767 l 494 872 b 599 799 549 892 599 846 b 508 722 599 751 556 717 m 283 619 b 76 400 153 619 97 540 l 57 400 l 57 639 l 614 639 l 614 619 l 238 19 l 378 19 b 618 256 540 19 597 83 l 636 256 l 636 0 l 18 0 l 18 19 l 393 619 l 283 619 "},"ˇ":{"ha":590,"x_min":0,"x_max":0,"o":"m 511 1093 l 521 1083 l 354 896 l 236 896 l 69 1083 l 79 1093 l 294 993 "},"ŵ":{"ha":1140,"x_min":0,"x_max":0,"o":"m 413 740 l 403 750 l 569 938 l 688 938 l 854 750 l 844 740 l 628 840 m 614 653 l 719 653 l 854 208 l 990 619 l 847 619 l 847 639 l 1139 639 l 1139 619 l 1015 619 l 803 -14 l 731 -14 l 561 461 l 372 -14 l 300 -14 l 93 619 l -1 619 l -1 639 l 419 639 l 419 619 l 300 619 l 425 179 "},"ĝ":{"ha":863,"x_min":0,"x_max":0,"o":"m 196 740 l 186 750 l 353 938 l 471 938 l 638 750 l 628 740 l 411 840 m 69 97 b 257 232 69 178 158 218 b 60 438 153 254 60 318 b 343 653 60 590 210 653 b 568 576 425 653 513 629 b 711 646 608 628 664 646 b 844 531 803 646 844 583 b 757 429 844 454 799 429 b 669 517 715 429 669 457 b 753 599 669 563 703 599 b 806 575 779 599 800 586 b 711 626 794 606 761 626 b 582 561 668 626 618 610 b 626 438 610 529 626 489 b 343 224 626 285 476 224 b 303 225 329 224 317 224 b 192 161 249 217 192 197 b 333 117 192 119 257 117 b 453 118 382 117 414 118 b 685 -114 557 118 685 75 b 358 -361 685 -282 546 -361 b 25 -183 194 -361 25 -312 b 194 -33 25 -82 124 -44 b 69 97 122 -15 69 25 m 261 438 b 343 243 261 321 268 243 b 425 438 397 243 425 321 b 343 633 425 554 397 633 b 261 438 289 633 261 554 m 192 -147 b 372 -339 192 -256 253 -339 b 617 -171 494 -339 617 -294 b 456 -47 617 -90 546 -47 l 311 -47 b 232 -42 283 -47 257 -46 b 192 -147 197 -71 192 -121 "},"ũ":{"ha":857,"x_min":0,"x_max":0,"o":"m 247 846 b 168 764 203 846 168 815 l 149 764 b 286 968 149 882 197 968 b 533 858 397 968 446 858 b 613 940 581 858 613 889 l 632 940 b 508 736 632 808 611 736 b 247 846 401 736 344 846 m 314 206 b 392 42 314 89 333 42 b 544 329 493 42 544 193 l 544 619 l 453 619 l 453 639 l 739 639 l 739 19 l 833 19 l 833 0 l 544 0 l 544 194 b 317 -14 521 86 458 -14 b 119 196 165 -14 119 75 l 119 619 l 25 619 l 25 639 l 314 639 "},"Ą":{"ha":1086,"x_min":0,"x_max":0,"o":"m 146 19 l 514 1063 l 600 1063 l 963 19 l 1067 19 l 1067 0 l 900 0 b 853 -147 875 -25 853 -79 b 917 -267 853 -222 876 -267 b 997 -201 956 -267 979 -235 l 1011 -208 b 839 -310 990 -247 958 -310 b 667 -190 747 -310 667 -274 b 844 0 667 -100 756 -37 l 594 0 l 594 19 l 713 19 l 613 331 l 276 331 l 168 19 l 331 19 l 331 0 l 25 0 l 25 19 m 283 350 l 606 350 l 450 828 "},"–":{"ha":558,"x_min":0,"x_max":0,"o":"m 475 392 l 475 372 l 83 372 l 83 392 "},"ﬀ":{"ha":972,"x_min":0,"x_max":0,"o":"m 142 19 l 142 619 l 17 619 l 17 639 l 142 639 l 142 642 b 500 986 142 838 292 986 b 649 933 561 986 613 965 b 913 1056 708 1008 800 1056 b 1104 897 1032 1056 1104 976 b 997 783 1104 826 1060 783 b 885 886 942 783 885 817 b 994 994 885 956 933 994 b 1056 964 1022 994 1050 978 b 919 1036 1042 994 997 1036 b 764 750 808 1036 764 926 l 764 639 l 957 639 l 957 619 l 764 619 l 764 19 l 929 19 l 929 0 l 17 0 l 17 19 m 331 639 l 576 639 l 576 708 b 486 811 529 717 486 750 b 592 917 486 881 531 917 b 629 906 606 917 619 913 b 635 914 632 908 633 911 b 506 965 610 940 561 965 b 331 681 399 965 331 857 m 576 19 l 576 619 l 331 619 l 331 19 "},"Ÿ":{"ha":1024,"x_min":0,"x_max":0,"o":"m 604 1246 b 711 1351 604 1304 651 1351 b 817 1246 769 1351 817 1304 b 711 1139 817 1186 769 1139 b 604 1246 651 1139 604 1186 m 306 1246 b 413 1351 306 1304 353 1351 b 518 1246 471 1351 518 1304 b 413 1139 518 1186 471 1139 b 306 1246 353 1139 306 1186 m 419 19 l 419 500 l 114 1022 l 17 1022 l 17 1042 l 503 1042 l 503 1022 l 364 1022 l 625 558 l 876 1022 l 719 1022 l 719 1042 l 1011 1042 l 1011 1022 l 900 1022 l 636 532 l 636 19 l 775 19 l 775 0 l 294 0 l 294 19 "},"Ă":{"ha":1086,"x_min":0,"x_max":0,"o":"m 406 1381 b 553 1292 406 1317 478 1292 b 700 1381 628 1292 700 1317 l 719 1381 b 553 1160 719 1247 671 1160 b 386 1381 435 1160 386 1247 l 406 1381 m 146 19 l 514 1063 l 600 1063 l 963 19 l 1067 19 l 1067 0 l 594 0 l 594 19 l 713 19 l 613 331 l 276 331 l 168 19 l 331 19 l 331 0 l 25 0 l 25 19 m 283 350 l 606 350 l 450 828 "},"Ŏ":{"ha":1058,"x_min":0,"x_max":0,"o":"m 392 1360 b 539 1271 392 1296 464 1271 b 686 1360 614 1271 686 1296 l 706 1360 b 539 1139 706 1226 657 1139 b 372 1360 421 1139 372 1226 l 392 1360 m 531 -14 b 58 521 235 -14 58 218 b 531 1056 58 824 249 1056 b 1003 521 813 1056 1003 824 b 531 -14 1003 218 826 -14 m 531 1039 b 303 521 351 1039 303 808 b 531 3 303 233 338 3 b 761 521 724 3 761 233 b 531 1039 761 808 710 1039 "},"´":{"ha":569,"x_min":0,"x_max":0,"o":"m 83 997 l 78 1017 l 389 1122 b 493 1049 443 1142 493 1096 b 403 972 493 1001 450 967 "},"ŷ":{"ha":822,"x_min":0,"x_max":0,"o":"m 215 740 l 206 750 l 372 938 l 490 938 l 657 750 l 647 740 l 431 840 m 418 -22 l 88 619 l -8 619 l -8 639 l 451 639 l 451 619 l 318 619 l 525 208 l 718 619 l 582 619 l 582 639 l 839 639 l 839 619 l 746 619 l 329 -264 b 206 -358 301 -322 265 -358 b 97 -254 150 -358 97 -321 b 208 -144 97 -194 143 -144 b 314 -243 267 -144 311 -190 "},"ū":{"ha":857,"x_min":0,"x_max":0,"o":"m 583 758 l 583 739 l 192 739 l 192 758 m 314 206 b 392 42 314 89 333 42 b 544 329 493 42 544 193 l 544 619 l 453 619 l 453 639 l 739 639 l 739 19 l 833 19 l 833 0 l 544 0 l 544 194 b 317 -14 521 86 458 -14 b 119 196 165 -14 119 75 l 119 619 l 25 619 l 25 639 l 314 639 "},"İ":{"ha":579,"x_min":0,"x_max":0,"o":"m 182 1269 b 289 1376 182 1329 229 1376 b 394 1269 347 1376 394 1329 b 289 1164 394 1211 347 1164 b 182 1269 229 1164 182 1211 m 178 19 l 178 1022 l 25 1022 l 25 1042 l 558 1042 l 558 1022 l 392 1022 l 392 19 l 558 19 l 558 0 l 25 0 l 25 19 "},"ţ":{"ha":503,"x_min":0,"x_max":0,"o":"m 278 -222 b 150 -137 278 -149 219 -137 l 247 -8 b 113 161 135 1 113 71 l 113 619 l 11 619 l 11 639 l 113 639 l 113 778 b 307 819 175 778 258 792 l 307 639 l 456 639 l 456 619 l 307 619 l 307 133 b 360 38 307 64 322 38 b 481 149 401 38 453 82 l 497 142 b 274 -10 464 53 386 -10 l 272 -10 l 218 -82 b 432 -194 343 -86 432 -117 b 156 -329 432 -264 365 -329 l 156 -310 b 278 -222 238 -310 278 -272 "},"ŏ":{"ha":769,"x_min":0,"x_max":0,"o":"m 244 957 b 392 868 244 893 317 868 b 539 957 467 868 539 893 l 558 957 b 392 736 558 824 510 736 b 225 957 274 736 225 824 l 244 957 m 46 319 b 385 653 46 500 175 653 b 724 319 594 653 724 500 b 385 -14 724 139 594 -14 b 46 319 175 -14 46 139 m 254 319 b 385 6 254 154 282 6 b 515 319 488 6 515 154 b 385 633 515 485 488 633 b 254 319 282 633 254 485 "},"Ž":{"ha":857,"x_min":0,"x_max":0,"o":"m 643 1336 l 653 1326 l 486 1139 l 368 1139 l 201 1326 l 211 1336 l 426 1236 m 794 1042 l 794 1022 l 261 19 l 517 19 b 789 285 707 19 761 108 l 808 285 l 808 0 l 17 0 l 17 19 l 553 1022 l 336 1022 b 64 785 146 1022 92 933 l 44 785 l 44 1042 "},"ﬁ":{"ha":871,"x_min":0,"x_max":0,"o":"m 142 19 l 142 619 l 17 619 l 17 639 l 142 639 l 142 711 b 528 1056 142 914 285 1056 b 753 890 675 1056 753 976 b 647 776 753 819 710 776 b 533 879 592 776 533 811 b 643 986 533 949 582 986 b 700 956 674 986 694 972 b 528 1036 688 994 632 1036 b 331 750 379 1036 331 926 l 331 639 l 750 639 l 750 19 l 847 19 l 847 0 l 17 0 l 17 19 m 331 619 l 331 19 l 556 19 l 556 619 "},"đ":{"ha":871,"x_min":0,"x_max":0,"o":"m 847 0 l 557 0 l 557 178 b 340 -14 526 54 453 -14 b 46 319 189 -14 46 111 b 340 651 46 528 189 651 b 557 461 453 651 526 583 l 557 782 l 429 782 l 429 801 l 557 801 l 557 1022 l 463 1022 l 463 1042 l 751 1042 l 751 801 l 854 801 l 854 782 l 751 782 l 751 19 l 847 19 m 557 319 b 389 617 557 525 467 617 b 268 319 307 617 268 524 b 393 25 268 115 311 25 b 557 319 471 25 557 114 "},"Ĩ":{"ha":579,"x_min":0,"x_max":0,"o":"m 157 1249 b 78 1167 113 1249 78 1218 l 58 1167 b 196 1371 58 1285 107 1371 b 443 1261 307 1371 356 1261 b 522 1343 490 1261 522 1292 l 542 1343 b 418 1139 542 1211 521 1139 b 157 1249 311 1139 254 1249 m 178 19 l 178 1022 l 25 1022 l 25 1042 l 558 1042 l 558 1022 l 392 1022 l 392 19 l 558 19 l 558 0 l 25 0 l 25 19 "},"Œ":{"ha":1378,"x_min":0,"x_max":0,"o":"m 1088 365 b 921 529 1067 458 1000 529 l 871 529 l 871 19 l 1018 19 b 1318 313 1208 19 1297 136 l 1338 313 l 1338 0 l 532 0 l 532 1 l 529 0 b 56 521 247 0 56 211 b 529 1042 56 831 247 1042 l 532 1040 l 532 1042 l 1324 1042 l 1324 757 l 1304 757 b 1032 1022 1283 906 1194 1022 l 871 1022 l 871 549 l 921 549 b 1088 706 1000 549 1067 613 l 1107 706 l 1107 365 l 1088 365 m 299 521 b 557 19 299 247 364 19 l 657 19 l 657 1022 l 557 1022 b 299 521 364 1022 299 794 "},"ˆ":{"ha":590,"x_min":0,"x_max":0,"o":"m 79 872 l 69 882 l 236 1069 l 354 1069 l 521 882 l 511 872 l 294 972 "},"Ş":{"ha":829,"x_min":0,"x_max":0,"o":"m 58 -14 l 58 313 l 78 313 b 417 1 128 165 228 1 b 631 199 550 1 631 79 b 72 778 631 463 72 375 b 381 1056 72 951 219 1056 b 592 975 465 1056 535 1028 l 706 1056 l 719 1056 l 719 743 l 700 743 b 392 1032 644 918 539 1032 b 219 872 279 1032 219 968 b 775 299 219 636 775 697 b 428 -21 775 104 624 -21 b 413 -21 422 -21 418 -21 l 336 -122 b 550 -235 461 -126 550 -157 b 274 -369 550 -304 483 -369 l 274 -350 b 396 -262 356 -350 396 -312 b 268 -178 396 -189 338 -178 l 388 -19 b 192 74 306 -10 242 24 l 72 -14 "},"ș":{"ha":619,"x_min":0,"x_max":0,"o":"m 54 -14 l 54 201 l 74 201 b 319 7 118 86 208 7 b 475 108 400 7 475 38 b 69 451 475 250 69 179 b 285 651 69 561 153 651 b 444 593 351 651 404 628 l 519 653 l 533 653 l 533 458 l 515 458 b 286 631 483 538 406 631 b 161 539 228 631 161 603 b 581 204 161 408 581 465 b 329 -14 581 60 457 -14 b 146 53 256 -14 193 11 l 69 -14 m 188 -186 b 322 -62 188 -119 249 -62 b 461 -249 397 -62 461 -126 b 185 -510 461 -387 351 -510 l 185 -490 b 438 -215 326 -490 447 -396 b 307 -310 415 -272 364 -310 b 188 -186 235 -310 188 -253 "},"Ģ":{"ha":1051,"x_min":0,"x_max":0,"o":"m 1039 406 l 1039 386 l 969 386 l 969 215 b 553 -14 879 121 779 -14 b 58 521 243 -14 58 197 b 572 1056 58 844 290 1056 b 793 978 651 1056 731 1026 l 919 1042 l 933 1042 l 933 736 l 914 736 b 592 1028 882 881 753 1028 b 303 521 385 1028 303 774 b 553 10 303 268 353 10 b 739 174 669 10 718 115 l 739 386 l 594 386 l 594 406 m 425 -221 b 560 -97 425 -154 486 -97 b 699 -283 635 -97 699 -161 b 422 -544 699 -422 589 -544 l 422 -525 b 675 -250 564 -525 685 -431 b 544 -344 653 -307 601 -344 b 425 -221 472 -344 425 -287 "},"˛":{"ha":764,"x_min":0,"x_max":0,"o":"m 556 -171 b 383 -272 535 -210 503 -272 b 211 -153 292 -272 211 -236 b 453 60 211 -42 347 29 l 458 49 b 397 -110 429 32 397 -29 b 461 -229 397 -185 421 -229 b 542 -164 500 -229 524 -197 l 556 -171 "},"Ĺ":{"ha":854,"x_min":0,"x_max":0,"o":"m 289 1150 l 283 1169 l 594 1275 b 699 1201 649 1294 699 1249 b 608 1125 699 1154 656 1119 m 25 0 l 25 19 l 150 19 l 150 1022 l 25 1022 l 25 1042 l 489 1042 l 489 1022 l 364 1022 l 364 19 l 507 19 b 807 313 711 19 786 136 l 826 313 l 826 0 "},"Ť":{"ha":940,"x_min":0,"x_max":0,"o":"m 694 1336 l 704 1326 l 538 1139 l 419 1139 l 253 1326 l 263 1336 l 478 1236 m 364 19 l 364 1022 l 275 1022 b 44 708 126 1022 65 885 l 25 708 l 25 1042 l 919 1042 l 919 708 l 900 708 b 669 1022 879 885 818 1022 l 581 1022 l 581 19 l 733 19 l 733 0 l 211 0 l 211 19 "},"˜":{"ha":622,"x_min":0,"x_max":0,"o":"m 168 908 b 89 826 124 908 89 878 l 69 826 b 207 1031 69 944 118 1031 b 454 921 318 1031 367 921 b 533 1003 501 921 533 951 l 553 1003 b 429 799 553 871 532 799 b 168 908 322 799 265 908 "},"ȓ":{"ha":661,"x_min":0,"x_max":0,"o":"m 182 736 b 349 957 182 869 231 957 b 515 736 467 957 515 869 l 496 736 b 349 825 496 800 424 825 b 201 736 274 825 201 800 m 119 19 l 119 619 l 25 619 l 25 639 l 314 639 l 314 478 b 494 653 335 578 383 653 b 650 506 572 653 650 594 b 536 386 650 442 610 386 b 419 497 469 386 419 428 b 581 586 419 583 514 626 b 492 632 564 617 528 632 b 314 310 347 632 314 454 l 314 19 l 408 19 l 408 0 l 25 0 l 25 19 "}}}
